<svg id="svg" version="1.1" xmlns="http://www.w3.org/2000/svg" xmlns:xlink="http://www.w3.org/1999/xlink" width="400" height="398.9556135770235" viewBox="0, 0, 400,398.9556135770235"><g id="svgg"><path id="path0" d="M84.232 0.399 C 84.232 0.619,84.860 0.798,85.629 0.798 C 86.397 0.798,87.026 0.619,87.026 0.399 C 87.026 0.180,86.397 0.000,85.629 0.000 C 84.860 0.000,84.232 0.180,84.232 0.399 M188.623 0.399 C 188.943 0.918,191.097 0.918,191.417 0.399 C 191.566 0.158,191.014 0.000,190.020 0.000 C 189.026 0.000,188.474 0.158,188.623 0.399 M293.214 0.399 C 293.534 0.918,295.688 0.918,296.008 0.399 C 296.157 0.158,295.605 0.000,294.611 0.000 C 293.616 0.000,293.064 0.158,293.214 0.399 M397.516 27.645 C 397.455 42.849,397.532 55.559,397.687 55.888 C 399.236 59.182,399.210 56.781,399.203 199.662 C 399.196 334.343,399.185 336.382,398.405 340.120 C 397.670 343.644,397.607 345.774,397.510 370.259 L 397.405 396.607 371.058 396.711 C 346.591 396.808,344.440 396.872,340.918 397.605 C 337.441 398.329,335.384 398.399,316.168 398.446 C 304.641 398.475,294.671 398.635,294.012 398.802 C 293.353 398.970,316.931 399.128,346.407 399.154 L 400.000 399.202 400.000 199.601 L 400.000 0.000 398.813 0.000 L 397.626 0.000 397.516 27.645 M59.082 0.955 C 59.082 1.661,59.959 2.005,61.039 1.723 C 62.449 1.354,62.045 0.399,60.479 0.399 C 59.551 0.399,59.082 0.586,59.082 0.955 M339.162 0.959 C 339.601 2.104,342.116 2.101,342.116 0.955 C 342.116 0.573,341.620 0.399,340.531 0.399 C 339.337 0.399,339.000 0.537,339.162 0.959 M54.691 2.196 C 54.691 2.528,55.045 2.794,55.489 2.794 C 55.933 2.794,56.287 2.528,56.287 2.196 C 56.287 1.863,55.933 1.597,55.489 1.597 C 55.045 1.597,54.691 1.863,54.691 2.196 M344.910 2.196 C 344.910 2.525,345.180 2.794,345.509 2.794 C 345.838 2.794,346.108 2.525,346.108 2.196 C 346.108 1.866,345.838 1.597,345.509 1.597 C 345.180 1.597,344.910 1.866,344.910 2.196 M50.699 3.151 C 50.699 3.600,51.737 4.018,52.057 3.698 C 52.537 3.218,52.275 2.794,51.497 2.794 C 51.058 2.794,50.699 2.955,50.699 3.151 M348.902 3.127 C 348.902 3.690,349.352 3.948,349.939 3.722 C 350.772 3.403,350.616 2.794,349.701 2.794 C 349.261 2.794,348.902 2.944,348.902 3.127 M47.505 4.192 C 47.505 4.603,47.767 4.799,48.204 4.714 C 49.045 4.552,48.992 3.844,48.125 3.663 C 47.763 3.588,47.505 3.808,47.505 4.192 M352.096 4.192 C 352.096 4.524,352.451 4.790,352.894 4.790 C 353.338 4.790,353.693 4.524,353.693 4.192 C 353.693 3.859,353.338 3.593,352.894 3.593 C 352.451 3.593,352.096 3.859,352.096 4.192 M44.311 5.389 C 44.311 5.722,44.666 5.988,45.110 5.988 C 45.553 5.988,45.908 5.722,45.908 5.389 C 45.908 5.057,45.553 4.790,45.110 4.790 C 44.666 4.790,44.311 5.057,44.311 5.389 M354.890 5.389 C 354.890 5.722,355.245 5.988,355.689 5.988 C 356.132 5.988,356.487 5.722,356.487 5.389 C 356.487 5.057,356.132 4.790,355.689 4.790 C 355.245 4.790,354.890 5.057,354.890 5.389 M42.814 5.853 C 42.119 6.134,42.189 6.786,42.914 6.786 C 43.244 6.786,43.513 6.517,43.513 6.188 C 43.513 5.858,43.468 5.603,43.413 5.620 C 43.358 5.638,43.089 5.742,42.814 5.853 M357.685 6.154 C 357.685 6.502,357.969 6.786,358.317 6.786 C 358.664 6.786,358.878 6.573,358.791 6.312 C 358.544 5.572,357.685 5.449,357.685 6.154 M40.319 7.385 C 40.319 7.715,40.589 7.984,40.918 7.984 C 41.248 7.984,41.517 7.715,41.517 7.385 C 41.517 7.056,41.248 6.786,40.918 6.786 C 40.589 6.786,40.319 7.056,40.319 7.385 M359.681 7.385 C 359.681 7.715,359.950 7.984,360.279 7.984 C 360.609 7.984,360.878 7.715,360.878 7.385 C 360.878 7.056,360.609 6.786,360.279 6.786 C 359.950 6.786,359.681 7.056,359.681 7.385 M361.677 8.383 C 361.677 8.603,361.946 8.782,362.275 8.782 C 362.605 8.782,362.874 8.603,362.874 8.383 C 362.874 8.164,362.605 7.984,362.275 7.984 C 361.946 7.984,361.677 8.164,361.677 8.383 M35.928 9.381 C 35.928 9.711,36.282 9.980,36.714 9.980 C 37.249 9.980,37.426 9.789,37.270 9.381 C 37.144 9.052,36.790 8.782,36.484 8.782 C 36.178 8.782,35.928 9.052,35.928 9.381 M363.673 9.381 C 363.673 9.711,363.942 9.980,364.271 9.980 C 364.601 9.980,364.870 9.711,364.870 9.381 C 364.870 9.052,364.601 8.782,364.271 8.782 C 363.942 8.782,363.673 9.052,363.673 9.381 M33.932 10.579 C 33.932 10.912,34.287 11.178,34.731 11.178 C 35.174 11.178,35.529 10.912,35.529 10.579 C 35.529 10.246,35.174 9.980,34.731 9.980 C 34.287 9.980,33.932 10.246,33.932 10.579 M365.669 10.579 C 365.669 10.912,366.024 11.178,366.467 11.178 C 366.911 11.178,367.265 10.912,367.265 10.579 C 367.265 10.246,366.911 9.980,366.467 9.980 C 366.024 9.980,365.669 10.246,365.669 10.579 M30.739 12.575 C 30.739 12.908,31.093 13.174,31.537 13.174 C 31.980 13.174,32.335 12.908,32.335 12.575 C 32.335 12.242,31.980 11.976,31.537 11.976 C 31.093 11.976,30.739 12.242,30.739 12.575 M368.862 12.575 C 368.862 12.904,369.132 13.174,369.461 13.174 C 369.790 13.174,370.060 12.904,370.060 12.575 C 370.060 12.246,369.790 11.976,369.461 11.976 C 369.132 11.976,368.862 12.246,368.862 12.575 M26.747 15.768 C 26.747 16.098,26.477 16.367,26.148 16.367 C 25.818 16.367,25.549 16.637,25.549 16.966 C 25.549 17.295,25.818 17.565,26.148 17.565 C 26.477 17.565,26.747 17.295,26.747 16.966 C 26.747 16.637,27.016 16.367,27.345 16.367 C 27.675 16.367,27.944 16.098,27.944 15.768 C 27.944 15.439,27.675 15.170,27.345 15.170 C 27.016 15.170,26.747 15.439,26.747 15.768 M372.854 15.768 C 372.854 16.098,373.115 16.367,373.433 16.367 C 373.752 16.367,374.177 16.662,374.379 17.022 C 374.580 17.382,374.948 17.551,375.197 17.398 C 375.844 16.998,375.754 16.367,375.050 16.367 C 374.721 16.367,374.451 16.098,374.451 15.768 C 374.451 15.436,374.096 15.170,373.653 15.170 C 373.209 15.170,372.854 15.436,372.854 15.768 M16.866 25.348 C 16.292 26.000,16.199 27.146,16.721 27.146 C 17.058 27.146,18.363 25.412,18.363 24.964 C 18.363 24.537,17.352 24.795,16.866 25.348 M383.000 25.250 C 383.128 25.524,383.344 26.063,383.479 26.447 C 383.817 27.405,384.830 27.330,384.830 26.347 C 384.830 25.904,384.564 25.549,384.232 25.549 C 383.902 25.549,383.633 25.369,383.633 25.150 C 383.633 24.930,383.438 24.750,383.200 24.750 C 382.962 24.750,382.872 24.975,383.000 25.250 M13.174 30.539 C 13.174 30.868,13.443 31.138,13.772 31.138 C 14.102 31.138,14.371 30.868,14.371 30.539 C 14.371 30.210,14.102 29.940,13.772 29.940 C 13.443 29.940,13.174 30.210,13.174 30.539 M386.826 30.539 C 386.826 30.868,387.096 31.138,387.425 31.138 C 387.754 31.138,388.024 30.868,388.024 30.539 C 388.024 30.210,387.754 29.940,387.425 29.940 C 387.096 29.940,386.826 30.210,386.826 30.539 M86.028 32.590 C 68.524 34.567,56.966 45.107,54.884 60.991 C 54.271 65.670,53.946 332.203,54.551 334.462 L 54.800 335.392 114.925 335.219 C 180.498 335.031,178.608 335.095,194.012 332.539 C 201.725 331.258,214.828 327.365,221.043 324.507 C 222.424 323.873,224.765 322.796,226.248 322.116 C 227.730 321.435,230.778 319.821,233.022 318.529 C 236.474 316.542,238.029 315.517,241.317 313.065 C 243.632 311.339,245.628 309.699,247.190 308.241 C 248.224 307.275,249.405 306.250,249.813 305.964 C 251.489 304.790,261.876 291.715,261.876 290.779 C 261.876 290.676,262.701 289.137,263.710 287.359 C 267.544 280.603,270.675 271.624,272.040 263.473 C 272.390 261.387,272.860 258.854,273.086 257.843 C 273.616 255.474,273.613 237.202,273.084 235.234 C 272.862 234.408,272.395 232.206,272.047 230.339 C 268.473 211.172,257.192 194.006,241.318 183.578 C 239.048 182.087,237.075 180.681,236.935 180.453 C 236.794 180.226,236.335 180.040,235.915 180.040 C 235.067 180.040,228.314 176.554,227.850 175.878 C 227.390 175.205,227.408 175.183,230.405 172.655 C 237.328 166.814,239.853 164.554,241.760 162.488 C 248.820 154.842,252.936 148.115,256.820 137.873 C 262.103 123.940,262.758 105.816,258.555 89.820 C 255.535 78.324,248.326 66.670,238.582 57.530 C 237.502 56.517,236.416 55.494,236.169 55.256 C 232.398 51.631,221.679 45.284,212.774 41.404 C 208.772 39.660,197.149 36.178,193.014 35.485 C 191.916 35.301,189.581 34.867,187.824 34.522 C 178.931 32.772,167.035 32.383,123.553 32.422 C 103.573 32.440,86.687 32.516,86.028 32.590 M11.277 33.021 C 10.392 33.339,10.674 34.683,11.577 34.447 C 12.016 34.332,12.375 34.000,12.375 33.710 C 12.375 33.058,11.938 32.784,11.277 33.021 M389.321 32.999 C 388.619 33.282,388.698 34.331,389.421 34.331 C 389.754 34.331,390.020 33.976,390.020 33.533 C 390.020 33.094,389.975 32.749,389.920 32.766 C 389.865 32.783,389.596 32.888,389.321 32.999 M9.980 35.729 C 9.980 36.058,10.250 36.327,10.579 36.327 C 10.908 36.327,11.178 36.058,11.178 35.729 C 11.178 35.399,10.908 35.130,10.579 35.130 C 10.250 35.130,9.980 35.399,9.980 35.729 M390.020 35.729 C 390.020 36.058,390.289 36.327,390.619 36.327 C 390.948 36.327,391.218 36.058,391.218 35.729 C 391.218 35.399,390.948 35.130,390.619 35.130 C 390.289 35.130,390.020 35.399,390.020 35.729 M9.049 37.392 C 8.589 37.851,8.758 38.323,9.381 38.323 C 9.711 38.323,9.980 38.054,9.980 37.725 C 9.980 37.101,9.508 36.933,9.049 37.392 M391.218 37.725 C 391.218 38.054,391.397 38.323,391.617 38.323 C 391.836 38.323,392.016 38.054,392.016 37.725 C 392.016 37.395,391.836 37.126,391.617 37.126 C 391.397 37.126,391.218 37.395,391.218 37.725 M7.984 39.721 C 7.984 40.050,8.164 40.319,8.383 40.319 C 8.603 40.319,8.782 40.050,8.782 39.721 C 8.782 39.391,8.603 39.122,8.383 39.122 C 8.164 39.122,7.984 39.391,7.984 39.721 M392.016 39.721 C 392.016 40.050,392.285 40.319,392.615 40.319 C 392.944 40.319,393.214 40.050,393.214 39.721 C 393.214 39.391,392.944 39.122,392.615 39.122 C 392.285 39.122,392.016 39.391,392.016 39.721 M7.042 41.395 C 6.592 41.844,6.768 42.315,7.385 42.315 C 7.715 42.315,7.984 42.146,7.984 41.940 C 7.984 41.436,7.361 41.076,7.042 41.395 M393.214 41.717 C 393.214 42.046,393.393 42.315,393.613 42.315 C 393.832 42.315,394.012 42.046,394.012 41.717 C 394.012 41.387,393.832 41.118,393.613 41.118 C 393.393 41.118,393.214 41.387,393.214 41.717 M5.863 43.771 C 5.315 44.319,5.599 45.166,6.287 45.034 C 6.672 44.960,6.986 44.647,6.986 44.339 C 6.986 43.709,6.282 43.352,5.863 43.771 M394.012 44.311 C 394.012 44.755,394.278 45.110,394.611 45.110 C 394.943 45.110,395.210 44.755,395.210 44.311 C 395.210 43.868,394.943 43.513,394.611 43.513 C 394.278 43.513,394.012 43.868,394.012 44.311 M395.210 47.118 C 395.210 47.551,395.479 47.904,395.808 47.904 C 396.138 47.904,396.407 47.654,396.407 47.348 C 396.407 47.042,396.138 46.689,395.808 46.562 C 395.401 46.406,395.210 46.584,395.210 47.118 M4.790 47.305 C 4.790 47.635,5.060 47.904,5.389 47.904 C 5.719 47.904,5.988 47.635,5.988 47.305 C 5.988 46.976,5.719 46.707,5.389 46.707 C 5.060 46.707,4.790 46.976,4.790 47.305 M3.593 50.299 C 3.593 50.743,3.859 51.098,4.192 51.098 C 4.524 51.098,4.790 50.743,4.790 50.299 C 4.790 49.856,4.524 49.501,4.192 49.501 C 3.859 49.501,3.593 49.856,3.593 50.299 M396.407 50.299 C 396.407 50.739,396.587 51.098,396.806 51.098 C 397.026 51.098,397.206 50.739,397.206 50.299 C 397.206 49.860,397.026 49.501,396.806 49.501 C 396.587 49.501,396.407 49.860,396.407 50.299 M2.794 54.691 C 2.794 55.130,2.974 55.489,3.194 55.489 C 3.413 55.489,3.593 55.130,3.593 54.691 C 3.593 54.251,3.413 53.892,3.194 53.892 C 2.974 53.892,2.794 54.251,2.794 54.691 M1.597 59.281 C 1.597 60.257,1.777 60.679,2.196 60.679 C 2.614 60.679,2.794 60.257,2.794 59.281 C 2.794 58.306,2.614 57.884,2.196 57.884 C 1.777 57.884,1.597 58.306,1.597 59.281 M173.453 83.573 C 175.868 84.175,178.204 84.827,178.643 85.023 C 179.082 85.218,180.661 85.926,182.152 86.596 C 189.801 90.032,195.420 96.850,198.627 106.587 C 200.544 112.410,200.177 126.879,197.984 131.936 C 197.793 132.375,197.204 133.832,196.674 135.172 C 193.048 144.351,185.431 150.783,174.451 153.939 L 170.659 155.029 143.077 155.184 L 115.495 155.338 115.232 150.461 C 114.784 142.132,114.924 103.307,115.414 100.107 C 116.882 90.507,120.417 86.003,128.637 83.258 C 131.400 82.336,131.939 82.315,150.898 82.399 L 169.062 82.479 173.453 83.573 M0.000 189.222 C 0.000 292.562,0.020 295.409,0.744 295.409 C 1.992 295.409,1.993 295.310,1.993 189.221 C 1.993 83.132,1.992 83.034,0.744 83.034 C 0.020 83.034,0.000 85.881,0.000 189.222 M177.844 202.423 C 187.951 203.624,198.223 209.514,204.249 217.565 C 212.601 228.722,214.366 245.877,208.686 260.679 C 203.173 275.043,189.447 283.906,172.056 284.329 C 169.750 284.385,156.053 284.386,141.617 284.331 L 115.369 284.232 115.382 252.794 C 115.388 235.363,115.563 220.058,115.773 218.440 C 116.933 209.509,120.878 204.859,129.142 202.685 C 130.470 202.336,171.153 201.582,173.253 201.867 C 173.583 201.912,175.649 202.162,177.844 202.423 M305.274 256.018 C 300.703 258.468,293.812 265.815,293.812 268.239 C 293.812 268.478,293.646 268.985,293.442 269.367 C 291.981 272.101,291.051 282.913,292.216 283.633 C 292.435 283.768,292.615 284.208,292.615 284.608 C 292.615 285.605,293.847 289.483,294.397 290.220 C 294.643 290.549,295.107 291.353,295.426 292.006 C 296.234 293.654,302.096 299.485,303.792 300.327 C 304.561 300.708,305.459 301.180,305.788 301.375 C 306.968 302.074,309.314 302.994,309.917 302.994 C 310.255 302.994,310.643 303.174,310.778 303.393 C 310.926 303.631,313.503 303.792,317.166 303.792 C 320.829 303.792,323.406 303.631,323.553 303.393 C 323.689 303.174,324.166 302.994,324.614 302.994 C 325.398 302.994,327.700 302.126,328.942 301.361 C 329.271 301.159,329.810 300.872,330.140 300.725 C 330.469 300.578,330.828 300.345,330.938 300.208 C 331.048 300.070,331.771 299.573,332.546 299.103 C 333.920 298.269,338.124 294.137,338.124 293.620 C 338.124 293.477,338.573 292.771,339.122 292.051 C 340.721 289.955,340.476 288.588,338.836 290.456 C 336.399 293.232,333.244 295.212,329.352 296.409 C 326.598 297.256,317.721 297.476,317.464 296.704 C 317.373 296.431,316.719 296.208,316.011 296.208 C 315.303 296.208,314.375 295.944,313.949 295.621 C 313.522 295.299,312.962 295.030,312.703 295.023 C 311.784 294.998,307.157 291.662,305.262 289.659 C 295.646 279.492,297.841 262.572,309.734 255.192 L 311.178 254.296 309.780 254.324 C 308.946 254.340,307.130 255.023,305.274 256.018 M1.597 339.920 C 1.597 340.896,1.777 341.317,2.196 341.317 C 2.614 341.317,2.794 340.896,2.794 339.920 C 2.794 338.944,2.614 338.523,2.196 338.523 C 1.777 338.523,1.597 338.944,1.597 339.920 M2.794 344.711 C 2.794 345.040,2.974 345.309,3.194 345.309 C 3.413 345.309,3.593 345.040,3.593 344.711 C 3.593 344.381,3.413 344.112,3.194 344.112 C 2.974 344.112,2.794 344.381,2.794 344.711 M3.593 348.902 C 3.593 349.346,3.859 349.701,4.192 349.701 C 4.524 349.701,4.790 349.346,4.790 348.902 C 4.790 348.459,4.524 348.104,4.192 348.104 C 3.859 348.104,3.593 348.459,3.593 348.902 M396.407 348.902 C 396.407 349.341,396.587 349.701,396.806 349.701 C 397.026 349.701,397.206 349.341,397.206 348.902 C 397.206 348.463,397.026 348.104,396.806 348.104 C 396.587 348.104,396.407 348.463,396.407 348.902 M4.790 352.129 C 4.790 353.102,5.723 352.964,5.917 351.963 C 5.994 351.569,5.790 351.297,5.418 351.297 C 5.048 351.297,4.790 351.639,4.790 352.129 M395.210 352.096 C 395.210 352.539,395.476 352.894,395.808 352.894 C 396.141 352.894,396.407 352.539,396.407 352.096 C 396.407 351.652,396.141 351.297,395.808 351.297 C 395.476 351.297,395.210 351.652,395.210 352.096 M5.658 354.754 C 5.826 355.628,6.986 355.751,6.986 354.896 C 6.986 354.569,6.655 354.239,6.251 354.161 C 5.718 354.058,5.555 354.221,5.658 354.754 M394.278 354.358 C 393.792 354.844,394.003 355.689,394.611 355.689 C 394.943 355.689,395.210 355.334,395.210 354.890 C 395.210 354.095,394.784 353.852,394.278 354.358 M6.786 357.485 C 6.786 357.814,7.056 358.084,7.385 358.084 C 7.715 358.084,7.984 357.814,7.984 357.485 C 7.984 357.156,7.715 356.886,7.385 356.886 C 7.056 356.886,6.786 357.156,6.786 357.485 M393.214 357.534 C 393.214 358.064,393.322 358.092,393.812 357.685 C 394.142 357.411,394.411 357.120,394.411 357.037 C 394.411 356.954,394.142 356.886,393.812 356.886 C 393.483 356.886,393.214 357.178,393.214 357.534 M7.984 359.481 C 7.984 359.810,8.164 360.080,8.383 360.080 C 8.603 360.080,8.782 359.810,8.782 359.481 C 8.782 359.152,8.603 358.882,8.383 358.882 C 8.164 358.882,7.984 359.152,7.984 359.481 M392.016 359.481 C 392.016 359.810,392.285 360.080,392.615 360.080 C 392.944 360.080,393.214 359.810,393.214 359.481 C 393.214 359.152,392.944 358.882,392.615 358.882 C 392.285 358.882,392.016 359.152,392.016 359.481 M8.874 361.352 C 9.121 362.093,9.980 362.215,9.980 361.510 C 9.980 361.163,9.696 360.878,9.348 360.878 C 9.000 360.878,8.787 361.092,8.874 361.352 M391.218 361.477 C 391.218 361.806,391.397 362.076,391.617 362.076 C 391.836 362.076,392.016 361.806,392.016 361.477 C 392.016 361.148,391.836 360.878,391.617 360.878 C 391.397 360.878,391.218 361.148,391.218 361.477 M9.980 363.473 C 9.980 363.802,10.250 364.072,10.579 364.072 C 10.908 364.072,11.178 363.802,11.178 363.473 C 11.178 363.144,10.908 362.874,10.579 362.874 C 10.250 362.874,9.980 363.144,9.980 363.473 M390.020 363.473 C 390.020 363.802,390.289 364.072,390.619 364.072 C 390.948 364.072,391.218 363.802,391.218 363.473 C 391.218 363.144,390.948 362.874,390.619 362.874 C 390.289 362.874,390.020 363.144,390.020 363.473 M10.855 365.396 C 10.922 365.871,11.292 366.319,11.677 366.392 C 12.706 366.589,12.588 365.019,11.553 364.748 C 10.888 364.575,10.755 364.699,10.855 365.396 M388.822 365.669 C 388.822 366.112,389.088 366.467,389.421 366.467 C 389.754 366.467,390.020 366.112,390.020 365.669 C 390.020 365.225,389.754 364.870,389.421 364.870 C 389.088 364.870,388.822 365.225,388.822 365.669 M13.174 368.663 C 13.174 368.992,13.443 369.261,13.772 369.261 C 14.102 369.261,14.371 368.992,14.371 368.663 C 14.371 368.333,14.102 368.064,13.772 368.064 C 13.443 368.064,13.174 368.333,13.174 368.663 M386.826 368.663 C 386.826 368.992,387.096 369.261,387.425 369.261 C 387.754 369.261,388.024 368.992,388.024 368.663 C 388.024 368.333,387.754 368.064,387.425 368.064 C 387.096 368.064,386.826 368.333,386.826 368.663 M16.367 372.683 C 16.367 373.400,17.300 374.451,17.936 374.451 C 18.171 374.451,18.363 374.271,18.363 374.052 C 18.363 373.832,18.205 373.653,18.011 373.653 C 17.817 373.653,17.564 373.293,17.449 372.854 C 17.202 371.910,16.367 371.778,16.367 372.683 M383.338 373.128 C 383.065 373.714,382.955 374.296,383.093 374.422 C 383.230 374.548,383.423 374.426,383.521 374.152 C 383.619 373.877,383.954 373.653,384.265 373.653 C 384.576 373.653,384.830 373.293,384.830 372.854 C 384.830 371.709,383.919 371.876,383.338 373.128 M25.549 382.435 C 25.549 382.655,25.818 382.834,26.148 382.834 C 26.477 382.834,26.747 383.104,26.747 383.433 C 26.747 383.762,27.016 384.032,27.345 384.032 C 27.675 384.032,27.944 383.762,27.944 383.433 C 27.944 383.104,27.675 382.834,27.345 382.834 C 27.016 382.834,26.747 382.655,26.747 382.435 C 26.747 382.216,26.477 382.036,26.148 382.036 C 25.818 382.036,25.549 382.216,25.549 382.435 M373.752 382.579 C 372.639 383.130,372.577 384.032,373.653 384.032 C 374.096 384.032,374.451 383.766,374.451 383.433 C 374.451 383.104,374.721 382.834,375.050 382.834 C 375.379 382.834,375.649 382.655,375.649 382.435 C 375.649 381.941,374.931 381.995,373.752 382.579 M30.739 386.627 C 30.739 386.959,31.093 387.226,31.537 387.226 C 31.980 387.226,32.335 386.959,32.335 386.627 C 32.335 386.294,31.980 386.028,31.537 386.028 C 31.093 386.028,30.739 386.294,30.739 386.627 M368.862 386.627 C 368.862 386.956,369.132 387.226,369.461 387.226 C 369.790 387.226,370.060 386.956,370.060 386.627 C 370.060 386.297,369.790 386.028,369.461 386.028 C 369.132 386.028,368.862 386.297,368.862 386.627 M33.788 388.623 C 33.914 388.952,34.358 389.222,34.773 389.222 C 35.189 389.222,35.529 388.952,35.529 388.623 C 35.529 388.252,35.153 388.024,34.543 388.024 C 33.831 388.024,33.622 388.190,33.788 388.623 M365.669 388.623 C 365.669 388.955,366.024 389.222,366.467 389.222 C 366.911 389.222,367.265 388.955,367.265 388.623 C 367.265 388.290,366.911 388.024,366.467 388.024 C 366.024 388.024,365.669 388.290,365.669 388.623 M35.928 389.850 C 35.928 390.221,36.200 390.425,36.594 390.349 C 37.595 390.154,37.733 389.222,36.760 389.222 C 36.269 389.222,35.928 389.479,35.928 389.850 M363.673 389.820 C 363.673 390.150,363.942 390.419,364.271 390.419 C 364.601 390.419,364.870 390.150,364.870 389.820 C 364.870 389.491,364.601 389.222,364.271 389.222 C 363.942 389.222,363.673 389.491,363.673 389.820 M40.319 391.816 C 40.319 392.146,40.589 392.415,40.918 392.415 C 41.248 392.415,41.517 392.146,41.517 391.816 C 41.517 391.487,41.248 391.218,40.918 391.218 C 40.589 391.218,40.319 391.487,40.319 391.816 M359.681 391.816 C 359.681 392.146,359.950 392.415,360.279 392.415 C 360.609 392.415,360.878 392.146,360.878 391.816 C 360.878 391.487,360.609 391.218,360.279 391.218 C 359.950 391.218,359.681 391.487,359.681 391.816 M42.315 393.014 C 42.315 393.343,42.585 393.613,42.914 393.613 C 43.244 393.613,43.513 393.343,43.513 393.014 C 43.513 392.685,43.244 392.415,42.914 392.415 C 42.585 392.415,42.315 392.685,42.315 393.014 M357.685 393.014 C 357.685 393.343,357.845 393.613,358.041 393.613 C 358.237 393.613,358.501 393.343,358.627 393.014 C 358.767 392.649,358.628 392.415,358.271 392.415 C 357.948 392.415,357.685 392.685,357.685 393.014 M44.578 393.480 C 44.071 393.986,44.314 394.411,45.110 394.411 C 45.553 394.411,45.908 394.145,45.908 393.812 C 45.908 393.205,45.064 392.994,44.578 393.480 M355.156 393.480 C 354.650 393.986,354.893 394.411,355.689 394.411 C 356.132 394.411,356.487 394.145,356.487 393.812 C 356.487 393.205,355.643 392.994,355.156 393.480 M47.505 395.010 C 47.505 395.343,47.860 395.609,48.303 395.609 C 48.747 395.609,49.102 395.343,49.102 395.010 C 49.102 394.677,48.747 394.411,48.303 394.411 C 47.860 394.411,47.505 394.677,47.505 395.010 M352.096 395.010 C 352.096 395.343,352.451 395.609,352.894 395.609 C 353.338 395.609,353.693 395.343,353.693 395.010 C 353.693 394.677,353.338 394.411,352.894 394.411 C 352.451 394.411,352.096 394.677,352.096 395.010 M50.699 396.008 C 50.699 396.228,51.058 396.407,51.497 396.407 C 51.936 396.407,52.295 396.228,52.295 396.008 C 52.295 395.788,51.936 395.609,51.497 395.609 C 51.058 395.609,50.699 395.788,50.699 396.008 M348.902 396.008 C 348.902 396.228,349.261 396.407,349.701 396.407 C 350.140 396.407,350.499 396.228,350.499 396.008 C 350.499 395.788,350.140 395.609,349.701 395.609 C 349.261 395.609,348.902 395.788,348.902 396.008 M0.596 396.743 C -0.366 397.704,0.487 399.202,1.996 399.202 C 4.328 399.202,4.519 396.627,2.191 396.577 C 1.422 396.560,0.704 396.635,0.596 396.743 M21.558 397.904 C 21.557 399.121,21.644 399.202,22.954 399.202 C 24.271 399.202,24.351 399.125,24.351 397.874 C 24.351 396.618,24.277 396.548,22.955 396.577 C 21.653 396.605,21.559 396.694,21.558 397.904 M42.315 397.866 C 42.315 399.162,42.364 399.202,43.937 399.202 C 45.515 399.202,45.556 399.167,45.434 397.954 C 45.234 395.953,42.315 395.871,42.315 397.866 M54.691 397.006 C 54.691 397.339,55.045 397.605,55.489 397.605 C 55.933 397.605,56.287 397.339,56.287 397.006 C 56.287 396.673,55.933 396.407,55.489 396.407 C 55.045 396.407,54.691 396.673,54.691 397.006 M59.082 398.204 C 59.082 398.576,59.459 398.802,60.080 398.802 C 60.701 398.802,61.078 398.576,61.078 398.204 C 61.078 397.831,60.701 397.605,60.080 397.605 C 59.459 397.605,59.082 397.831,59.082 398.204 M63.273 398.802 C 63.124 399.044,63.676 399.202,64.671 399.202 C 65.665 399.202,66.217 399.044,66.068 398.802 C 65.932 398.583,65.303 398.403,64.671 398.403 C 64.038 398.403,63.409 398.583,63.273 398.802 M105.389 398.802 C 104.954 399.084,105.281 399.189,106.587 399.189 C 107.892 399.189,108.220 399.084,107.784 398.802 C 107.455 398.590,106.916 398.415,106.587 398.415 C 106.257 398.415,105.719 398.590,105.389 398.802 M126.148 398.802 C 125.710 399.085,126.011 399.191,127.269 399.195 C 128.316 399.199,128.893 399.045,128.743 398.802 C 128.430 398.296,126.931 398.296,126.148 398.802 M147.106 398.802 C 146.959 399.040,147.442 399.202,148.303 399.202 C 149.165 399.202,149.648 399.040,149.501 398.802 C 149.365 398.583,148.826 398.403,148.303 398.403 C 147.780 398.403,147.241 398.583,147.106 398.802 M168.064 398.802 C 167.629 399.084,167.956 399.189,169.261 399.189 C 170.567 399.189,170.894 399.084,170.459 398.802 C 170.130 398.590,169.591 398.415,169.261 398.415 C 168.932 398.415,168.393 398.590,168.064 398.802 M209.780 398.802 C 209.633 399.040,210.117 399.202,210.978 399.202 C 211.839 399.202,212.323 399.040,212.176 398.802 C 212.040 398.583,211.501 398.403,210.978 398.403 C 210.455 398.403,209.916 398.583,209.780 398.802 M230.539 398.802 C 230.389 399.045,230.966 399.199,232.012 399.195 C 233.270 399.191,233.572 399.085,233.134 398.802 C 232.350 398.296,230.852 398.296,230.539 398.802 M251.497 398.802 C 251.059 399.085,251.361 399.191,252.618 399.195 C 253.665 399.199,254.242 399.045,254.092 398.802 C 253.779 398.296,252.281 398.296,251.497 398.802 M272.455 398.802 C 272.308 399.040,272.791 399.202,273.653 399.202 C 274.514 399.202,274.997 399.040,274.850 398.802 C 274.715 398.583,274.176 398.403,273.653 398.403 C 273.130 398.403,272.591 398.583,272.455 398.802 M84.935 399.085 C 85.431 399.180,86.150 399.177,86.532 399.077 C 86.913 398.977,86.507 398.899,85.629 398.903 C 84.750 398.907,84.438 398.989,84.935 399.085 M189.122 399.084 C 189.616 399.179,190.424 399.179,190.918 399.084 C 191.412 398.989,191.008 398.911,190.020 398.911 C 189.032 398.911,188.628 398.989,189.122 399.084 " stroke="none" fill="#faf9f9" fill-rule="evenodd"></path><path id="path1" d="M66.412 1.081 C 66.452 1.578,66.032 1.843,64.870 2.056 C 62.213 2.544,59.085 2.458,59.057 1.896 C 59.043 1.622,58.869 1.801,58.670 2.295 C 58.426 2.904,57.951 3.209,57.198 3.241 C 56.081 3.288,55.872 3.261,54.591 2.899 C 54.135 2.770,53.892 2.923,53.892 3.339 C 53.892 4.172,51.992 4.643,51.038 4.047 C 50.412 3.657,50.299 3.708,50.299 4.380 C 50.299 5.195,48.726 5.897,47.961 5.424 C 47.748 5.292,47.507 5.384,47.425 5.628 C 47.293 6.025,45.544 6.811,43.313 7.476 C 42.874 7.607,42.425 7.842,42.315 7.998 C 42.206 8.154,41.307 8.676,40.319 9.159 C 36.839 10.860,31.360 14.168,30.074 15.344 C 29.819 15.577,29.011 16.218,28.278 16.766 C 26.267 18.274,17.964 26.610,17.964 27.122 C 17.964 27.368,17.695 27.673,17.365 27.800 C 17.036 27.926,16.766 28.248,16.766 28.516 C 16.766 28.784,16.317 29.424,15.768 29.940 C 15.220 30.456,14.770 31.054,14.770 31.269 C 14.770 31.485,14.353 32.217,13.843 32.896 C 13.333 33.576,12.791 34.401,12.640 34.731 C 12.489 35.060,11.822 36.228,11.160 37.325 C 10.497 38.423,9.851 39.591,9.724 39.920 C 9.597 40.250,9.075 41.417,8.563 42.515 C 8.052 43.613,7.521 44.915,7.383 45.409 C 7.207 46.037,6.809 46.321,6.061 46.354 C 5.385 46.383,5.248 46.467,5.689 46.583 C 6.774 46.866,6.625 49.032,5.489 49.489 C 4.995 49.687,4.815 49.861,5.090 49.875 C 6.203 49.931,5.306 53.094,4.178 53.094 C 3.511 53.094,3.394 53.722,3.992 54.092 C 4.853 54.624,4.313 57.485,3.351 57.485 C 2.695 57.485,2.612 58.123,3.218 58.498 C 3.483 58.662,3.551 59.601,3.400 61.016 C 2.962 65.129,2.776 65.868,2.178 65.868 C 1.471 65.868,1.294 82.799,1.996 83.234 C 2.549 83.575,2.549 294.468,1.996 294.810 C 1.289 295.247,1.463 333.759,2.171 333.487 C 2.774 333.256,2.915 333.785,3.387 338.024 C 3.521 339.226,3.438 340.461,3.193 340.919 C 2.859 341.543,2.890 341.717,3.336 341.717 C 4.310 341.717,4.862 344.572,3.992 345.110 C 3.363 345.499,3.524 345.997,4.349 346.212 C 5.264 346.452,5.924 348.847,5.199 349.296 C 4.884 349.491,5.020 349.667,5.602 349.820 C 6.344 350.014,6.455 350.270,6.314 351.472 C 6.200 352.448,6.309 352.894,6.659 352.894 C 6.940 352.894,7.294 353.388,7.444 353.992 C 7.595 354.596,8.137 355.880,8.649 356.846 C 9.162 357.812,9.581 358.934,9.581 359.341 C 9.581 359.747,9.729 360.080,9.909 360.080 C 10.090 360.080,10.639 360.884,11.130 361.867 C 11.621 362.850,12.192 363.759,12.399 363.887 C 12.605 364.014,12.774 364.369,12.774 364.674 C 12.774 364.979,13.224 365.713,13.772 366.305 C 14.321 366.897,14.770 367.582,14.770 367.827 C 14.770 368.071,15.220 368.756,15.768 369.348 C 16.317 369.940,16.766 370.592,16.766 370.798 C 16.766 371.004,17.036 371.275,17.365 371.402 C 17.695 371.528,17.964 371.836,17.964 372.086 C 17.964 372.891,29.071 383.633,29.904 383.633 C 30.144 383.633,30.339 383.770,30.339 383.939 C 30.339 384.107,31.327 384.836,32.535 385.558 C 33.743 386.280,34.731 387.041,34.731 387.248 C 34.731 387.455,34.985 387.625,35.297 387.625 C 36.009 387.625,38.317 388.920,38.321 389.321 C 38.322 389.486,38.688 389.621,39.134 389.621 C 39.580 389.621,40.049 389.890,40.175 390.220 C 40.301 390.549,40.835 390.818,41.360 390.818 C 41.885 390.818,42.315 390.998,42.315 391.218 C 42.315 391.437,42.640 391.617,43.037 391.617 C 43.435 391.617,44.108 391.881,44.534 392.203 C 44.961 392.525,45.705 392.795,46.188 392.802 C 46.671 392.809,47.210 393.071,47.386 393.385 C 47.561 393.699,47.975 393.941,48.304 393.921 C 49.804 393.833,50.299 394.055,50.299 394.814 C 50.299 395.494,50.411 395.546,51.038 395.155 C 51.974 394.570,53.892 395.026,53.892 395.834 C 53.892 396.314,54.188 396.388,55.287 396.182 C 57.097 395.842,58.683 396.253,58.683 397.062 C 58.683 397.585,58.792 397.612,59.278 397.208 C 59.689 396.867,60.588 396.795,62.173 396.976 C 65.817 397.391,66.667 397.629,66.667 398.235 C 66.667 398.930,84.004 399.094,84.431 398.403 C 84.567 398.184,85.206 398.004,85.852 398.004 C 86.498 398.004,87.026 398.184,87.026 398.403 C 87.026 398.947,104.854 398.947,105.190 398.403 C 105.325 398.184,105.954 398.004,106.587 398.004 C 107.220 398.004,107.848 398.184,107.984 398.403 C 108.318 398.944,125.614 398.944,125.948 398.403 C 126.084 398.184,126.713 398.004,127.345 398.004 C 127.978 398.004,128.607 398.184,128.743 398.403 C 129.078 398.947,146.906 398.947,146.906 398.403 C 146.906 398.184,147.535 398.004,148.303 398.004 C 149.072 398.004,149.701 398.184,149.701 398.403 C 149.701 398.947,167.528 398.947,167.864 398.403 C 168.000 398.184,168.629 398.004,169.261 398.004 C 169.894 398.004,170.523 398.184,170.659 398.403 C 170.993 398.944,188.289 398.944,188.623 398.403 C 188.758 398.184,189.387 398.004,190.020 398.004 C 190.653 398.004,191.281 398.184,191.417 398.403 C 191.753 398.947,209.581 398.947,209.581 398.403 C 209.581 398.184,210.210 398.004,210.978 398.004 C 211.747 398.004,212.375 398.184,212.375 398.403 C 212.375 398.947,230.203 398.947,230.539 398.403 C 230.859 397.885,233.013 397.885,233.333 398.403 C 233.667 398.944,250.963 398.944,251.297 398.403 C 251.433 398.184,252.062 398.004,252.695 398.004 C 253.327 398.004,253.956 398.184,254.092 398.403 C 254.428 398.947,272.255 398.947,272.255 398.403 C 272.255 398.184,272.884 398.004,273.653 398.004 C 274.421 398.004,275.050 398.184,275.050 398.403 C 275.050 398.927,292.710 398.947,293.234 398.423 C 293.458 398.199,301.996 397.970,314.172 397.861 C 333.921 397.685,340.656 397.306,343.016 396.238 C 343.401 396.064,344.377 395.998,345.183 396.092 C 346.238 396.215,346.855 396.059,347.377 395.537 C 348.208 394.707,349.714 394.584,350.419 395.289 C 350.792 395.662,350.898 395.584,350.898 394.937 C 350.898 393.999,352.364 393.406,353.124 394.037 C 353.455 394.311,353.658 394.187,353.806 393.621 C 353.922 393.177,354.346 392.814,354.747 392.814 C 355.149 392.814,356.378 392.381,357.479 391.852 C 358.580 391.322,359.750 390.782,360.080 390.651 C 360.409 390.520,361.307 390.032,362.076 389.567 C 362.844 389.102,364.012 388.422,364.671 388.056 C 366.867 386.835,370.657 384.302,370.792 383.965 C 370.865 383.782,371.071 383.633,371.250 383.633 C 372.325 383.633,384.431 371.527,384.431 370.451 C 384.431 370.273,384.581 370.067,384.764 369.993 C 385.100 369.859,387.634 366.068,388.855 363.872 C 389.221 363.214,389.901 362.046,390.366 361.277 C 390.830 360.509,391.318 359.611,391.449 359.281 C 391.580 358.952,392.121 357.782,392.650 356.681 C 393.180 355.580,393.613 354.351,393.613 353.949 C 393.613 353.547,393.976 353.124,394.420 353.008 C 395.014 352.852,395.117 352.665,394.810 352.295 C 394.355 351.746,394.922 349.701,395.530 349.701 C 395.717 349.701,395.793 349.179,395.700 348.543 C 395.585 347.762,395.779 347.135,396.296 346.618 C 396.864 346.050,397.017 345.464,396.886 344.347 C 396.790 343.519,396.894 342.453,397.117 341.979 C 398.574 338.891,398.603 336.167,398.603 199.601 C 398.603 63.035,398.574 60.310,397.117 57.222 C 396.894 56.748,396.790 55.683,396.886 54.855 C 397.014 53.760,396.864 53.151,396.335 52.623 C 395.504 51.791,395.366 50.065,396.108 49.765 C 396.402 49.647,396.316 49.551,395.898 49.533 C 395.002 49.493,394.223 47.614,394.810 46.906 C 395.117 46.537,395.014 46.349,394.420 46.194 C 393.976 46.078,393.613 45.702,393.613 45.358 C 393.613 45.014,393.183 43.784,392.657 42.626 C 392.131 41.467,391.591 40.250,391.456 39.920 C 391.321 39.591,390.830 38.693,390.366 37.924 C 389.901 37.156,389.224 35.988,388.861 35.329 C 388.149 34.038,385.966 30.666,385.630 30.339 C 385.517 30.230,384.677 29.134,383.764 27.906 C 381.600 24.996,375.262 18.650,372.239 16.367 C 370.931 15.379,369.800 14.436,369.727 14.271 C 369.654 14.107,369.417 13.972,369.202 13.972 C 368.986 13.972,368.173 13.487,367.395 12.893 C 365.284 11.283,358.221 7.648,354.790 6.405 C 354.187 6.187,353.693 5.813,353.693 5.575 C 353.693 5.337,353.503 5.260,353.271 5.403 C 352.433 5.921,350.898 5.210,350.898 4.304 C 350.898 3.627,350.792 3.540,350.419 3.912 C 349.688 4.643,348.197 4.484,347.293 3.580 C 346.742 3.030,346.286 2.878,345.875 3.109 C 344.882 3.664,342.835 3.177,342.615 2.334 C 342.458 1.737,342.301 1.677,341.857 2.045 C 340.728 2.982,333.896 1.989,334.296 0.946 C 334.558 0.263,296.430 0.115,296.008 0.798 C 295.688 1.317,293.534 1.317,293.214 0.798 C 293.051 0.536,275.652 0.399,242.315 0.399 C 208.978 0.399,191.580 0.536,191.417 0.798 C 191.097 1.317,188.943 1.317,188.623 0.798 C 188.281 0.246,87.026 0.246,87.026 0.798 C 87.026 1.018,86.397 1.198,85.629 1.198 C 84.860 1.198,84.232 1.018,84.232 0.798 C 84.232 0.544,80.986 0.399,75.294 0.399 C 67.108 0.399,66.361 0.457,66.412 1.081 M175.848 32.364 C 177.824 32.558,181.165 32.873,183.272 33.063 C 185.378 33.254,187.354 33.568,187.663 33.761 C 187.971 33.955,189.212 34.242,190.419 34.399 C 192.727 34.699,196.986 35.612,198.004 36.025 C 198.333 36.159,199.142 36.359,199.800 36.470 C 202.872 36.989,209.750 39.329,214.371 41.428 C 219.367 43.696,219.884 43.912,220.320 43.912 C 220.561 43.912,220.758 44.071,220.758 44.265 C 220.758 44.459,221.073 44.723,221.457 44.852 C 221.841 44.981,222.425 45.244,222.754 45.435 C 223.084 45.627,223.713 45.963,224.152 46.181 C 232.238 50.206,242.922 59.713,248.967 68.263 C 250.131 69.910,251.222 71.437,251.390 71.657 C 251.559 71.876,252.290 73.224,253.014 74.651 C 253.739 76.078,254.484 77.515,254.671 77.844 C 255.777 79.801,257.086 82.806,257.086 83.390 C 257.086 83.765,257.279 84.265,257.516 84.502 C 257.931 84.917,258.266 86.006,259.149 89.820 C 259.378 90.808,259.726 91.787,259.922 91.996 C 260.119 92.205,260.279 93.160,260.279 94.118 C 260.279 95.077,260.472 96.220,260.706 96.659 C 262.287 99.612,262.302 121.909,260.726 125.874 C 260.480 126.492,260.279 127.626,260.279 128.394 C 260.279 129.782,259.361 133.301,258.654 134.625 C 258.450 135.007,258.283 135.584,258.283 135.909 C 258.283 136.234,257.989 137.180,257.629 138.010 C 257.270 138.841,256.838 139.880,256.671 140.319 C 256.218 141.507,253.087 148.211,252.662 148.902 C 252.459 149.232,252.122 149.860,251.912 150.299 C 251.459 151.247,248.759 155.130,246.464 158.133 C 244.336 160.917,238.922 166.396,235.130 169.604 C 229.407 174.443,228.749 175.053,228.746 175.515 C 228.743 175.885,234.829 179.168,236.527 179.712 C 237.734 180.099,246.420 186.235,248.227 187.977 C 249.393 189.101,250.471 190.021,250.622 190.022 C 250.774 190.023,251.796 191.015,252.894 192.228 C 253.992 193.441,256.102 195.730,257.583 197.316 C 259.064 198.902,260.277 200.346,260.278 200.526 C 260.279 200.705,260.729 201.440,261.277 202.160 C 261.826 202.880,262.275 203.566,262.275 203.685 C 262.275 203.804,262.994 204.977,263.872 206.292 C 264.750 207.607,265.469 208.844,265.469 209.040 C 265.469 209.236,266.188 210.827,267.066 212.575 C 267.944 214.323,268.663 216.061,268.663 216.436 C 268.663 216.811,268.822 217.217,269.017 217.337 C 269.211 217.458,269.493 218.209,269.643 219.007 C 269.792 219.805,270.058 220.750,270.233 221.107 C 270.804 222.270,271.536 224.517,271.876 226.148 C 272.059 227.026,272.500 229.092,272.856 230.739 C 274.621 238.897,274.631 253.513,272.878 262.874 C 272.549 264.631,272.128 266.876,271.942 267.864 C 271.756 268.852,271.391 270.053,271.131 270.533 C 270.871 271.012,270.659 271.868,270.659 272.434 C 270.659 273.001,270.495 273.776,270.295 274.157 C 270.095 274.538,269.628 275.749,269.258 276.846 C 268.332 279.593,266.937 282.633,263.760 288.822 C 261.871 292.503,254.799 301.990,251.829 304.829 C 242.678 313.575,236.993 317.620,227.146 322.394 C 225.060 323.405,222.483 324.663,221.420 325.190 C 220.357 325.717,219.306 326.148,219.085 326.148 C 218.864 326.148,218.117 326.399,217.426 326.707 C 216.734 327.014,215.808 327.356,215.369 327.467 C 214.930 327.578,212.774 328.310,210.579 329.095 C 208.383 329.880,206.123 330.525,205.556 330.530 C 204.988 330.535,204.390 330.674,204.225 330.838 C 203.821 331.243,200.296 332.129,197.605 332.504 C 196.397 332.672,195.125 332.935,194.777 333.089 C 194.157 333.362,193.349 333.483,183.234 334.806 C 178.843 335.380,170.796 335.476,116.276 335.599 L 54.309 335.738 54.089 334.835 C 53.581 332.753,54.079 58.337,54.591 57.824 C 54.865 57.550,55.090 56.828,55.090 56.221 C 55.090 54.843,55.793 53.142,58.385 48.254 C 60.067 45.082,65.889 39.141,69.076 37.345 C 72.501 35.414,74.226 34.565,75.250 34.306 C 76.489 33.992,78.649 33.260,80.040 32.683 C 81.749 31.975,168.927 31.684,175.848 32.364 M133.134 83.058 C 128.627 83.625,125.212 84.937,122.693 87.067 C 122.001 87.652,121.281 88.197,121.094 88.277 C 120.549 88.510,118.164 91.687,118.164 92.179 C 118.164 92.424,118.006 92.938,117.814 93.319 C 115.855 97.204,115.607 102.320,115.974 131.234 L 116.270 154.507 143.464 154.380 C 164.316 154.283,171.078 154.132,172.455 153.733 C 173.443 153.447,174.970 153.036,175.848 152.819 C 177.479 152.417,179.366 151.663,181.353 150.621 C 181.965 150.299,182.869 149.826,183.362 149.569 C 187.702 147.305,195.210 139.196,195.210 136.772 C 195.210 136.506,195.357 136.117,195.537 135.908 C 196.078 135.280,197.929 130.092,198.448 127.745 C 199.050 125.027,199.376 110.693,198.862 109.587 C 198.229 108.226,197.206 105.190,197.206 104.672 C 197.206 103.707,194.264 98.092,192.510 95.709 C 190.690 93.236,189.557 92.143,186.659 90.063 C 185.763 89.420,184.940 88.788,184.830 88.659 C 184.519 88.293,182.015 87.026,181.602 87.026 C 181.400 87.026,180.303 86.577,179.165 86.028 C 178.027 85.479,176.663 85.030,176.133 85.030 C 175.604 85.030,174.604 84.777,173.913 84.467 C 173.221 84.158,171.577 83.799,170.259 83.671 C 168.942 83.542,166.427 83.266,164.671 83.057 C 160.947 82.615,136.650 82.615,133.134 83.058 M130.539 203.183 C 124.761 204.192,120.656 207.004,118.578 211.377 C 116.317 216.136,116.396 214.786,116.273 250.611 L 116.159 283.857 145.804 283.683 C 174.292 283.516,180.662 283.289,182.834 282.364 C 183.383 282.130,184.551 281.724,185.429 281.463 C 194.107 278.878,202.881 271.488,206.550 263.673 C 207.169 262.355,207.806 261.008,207.967 260.679 C 208.128 260.349,208.658 258.733,209.145 257.086 C 209.631 255.439,210.197 253.681,210.402 253.179 C 211.128 251.401,210.958 233.600,210.192 231.138 C 209.286 228.224,209.090 227.725,207.840 225.150 C 207.254 223.942,206.777 222.825,206.780 222.666 C 206.786 222.399,204.452 218.810,203.982 218.363 C 203.866 218.253,203.148 217.356,202.385 216.368 C 200.909 214.457,198.915 212.375,198.561 212.375 C 198.443 212.375,197.506 211.701,196.479 210.877 C 193.101 208.167,187.274 205.230,182.236 203.698 C 180.007 203.021,134.087 202.563,130.539 203.183 M330.292 242.229 C 331.583 242.466,332.832 242.852,333.067 243.086 C 333.301 243.321,333.998 243.513,334.616 243.513 C 335.234 243.513,336.051 243.684,336.433 243.893 C 336.814 244.102,337.844 244.569,338.723 244.931 C 341.827 246.209,344.726 247.675,345.946 248.582 C 346.625 249.088,347.304 249.501,347.455 249.501 C 348.874 249.501,356.894 257.641,359.865 262.097 C 361.503 264.553,361.850 265.134,362.955 267.265 C 364.227 269.722,365.486 272.923,366.173 275.449 C 367.634 280.826,367.809 282.234,367.809 288.623 C 367.809 295.032,367.496 297.511,366.223 301.211 C 365.918 302.097,365.669 303.132,365.669 303.512 C 365.669 303.892,365.503 304.514,365.302 304.896 C 365.100 305.277,364.182 307.183,363.262 309.132 C 361.864 312.094,359.698 315.767,358.877 316.567 C 358.764 316.677,357.696 317.984,356.502 319.473 C 352.494 324.472,341.095 332.535,338.036 332.535 C 337.733 332.535,337.314 332.678,337.106 332.852 C 336.637 333.245,333.132 334.295,329.940 335.000 C 326.764 335.701,314.777 335.705,311.577 335.005 C 308.986 334.439,305.785 333.508,304.192 332.858 C 299.573 330.973,297.394 329.862,295.140 328.244 C 294.452 327.750,293.776 327.345,293.639 327.345 C 293.317 327.345,288.255 323.075,287.286 321.987 C 279.207 312.912,276.321 307.228,274.052 295.926 C 273.322 292.293,273.475 280.492,274.306 276.248 C 277.707 258.890,290.582 245.777,307.784 242.153 C 310.885 241.499,326.607 241.553,330.292 242.229 " stroke="none" fill="#d4042c" fill-rule="evenodd"></path><path id="path2" d="M317.365 253.054 C 316.158 253.215,314.631 253.582,313.972 253.869 C 313.313 254.156,312.325 254.590,311.776 254.834 C 303.292 258.602,297.797 270.843,300.550 279.840 C 301.454 282.797,302.376 285.027,302.695 285.028 C 302.859 285.029,302.994 285.234,302.994 285.484 C 302.994 285.734,303.757 286.874,304.691 288.017 C 312.999 298.197,329.136 299.613,337.816 290.924 C 340.162 288.575,342.914 283.780,342.914 282.041 C 342.914 281.543,343.184 280.912,343.513 280.639 C 344.394 279.908,344.303 273.672,343.355 269.811 C 340.333 257.504,330.680 251.281,317.365 253.054 " stroke="none" fill="#24606d" fill-rule="evenodd"></path><path id="path3" d="M397.206 25.549 C 397.206 42.315,397.068 51.098,396.806 51.098 C 396.587 51.098,396.407 50.888,396.407 50.632 C 396.407 50.376,396.273 50.301,396.108 50.465 C 395.944 50.629,396.108 50.982,396.473 51.249 C 396.838 51.516,397.215 52.265,397.311 52.913 C 397.407 53.561,397.512 41.921,397.545 27.046 C 397.578 12.171,397.515 0.000,397.405 0.000 C 397.295 0.000,397.206 11.497,397.206 25.549 M30.206 13.440 C 29.799 13.847,29.890 14.371,30.368 14.371 C 30.603 14.371,31.065 14.102,31.394 13.772 C 31.927 13.240,31.909 13.174,31.233 13.174 C 30.815 13.174,30.353 13.293,30.206 13.440 M369.361 13.449 C 369.746 13.549,370.060 13.798,370.060 14.001 C 370.060 14.205,370.329 14.371,370.659 14.371 C 370.988 14.371,371.257 14.102,371.257 13.772 C 371.257 13.354,370.868 13.188,369.960 13.220 C 369.247 13.245,368.977 13.348,369.361 13.449 M375.250 17.731 C 375.250 18.079,375.534 18.363,375.882 18.363 C 376.229 18.363,376.443 18.150,376.356 17.889 C 376.109 17.149,375.250 17.026,375.250 17.731 M18.629 23.819 C 18.170 24.278,18.339 24.750,18.962 24.750 C 19.291 24.750,19.561 24.481,19.561 24.152 C 19.561 23.528,19.089 23.360,18.629 23.819 M381.637 23.970 C 381.637 24.199,382.094 24.872,382.653 25.467 L 383.669 26.547 383.073 25.378 C 382.744 24.735,382.567 24.061,382.679 23.881 C 382.790 23.701,382.601 23.553,382.259 23.553 C 381.917 23.553,381.637 23.740,381.637 23.970 M14.227 29.341 C 14.087 29.706,14.226 29.940,14.583 29.940 C 14.906 29.940,15.170 29.671,15.170 29.341 C 15.170 29.012,15.009 28.743,14.813 28.743 C 14.617 28.743,14.353 29.012,14.227 29.341 M386.229 29.139 C 386.095 29.356,386.169 29.850,386.393 30.236 C 386.744 30.838,386.804 30.782,386.814 29.840 C 386.827 28.692,386.642 28.471,386.229 29.139 M388.024 32.535 C 388.024 32.874,388.382 33.134,388.851 33.134 C 389.586 33.134,389.611 33.067,389.079 32.535 C 388.750 32.206,388.378 31.936,388.252 31.936 C 388.127 31.936,388.024 32.206,388.024 32.535 M163.564 32.623 C 164.273 32.712,165.530 32.713,166.358 32.627 C 167.187 32.540,166.607 32.468,165.070 32.466 C 163.533 32.465,162.855 32.535,163.564 32.623 M398.244 59.681 C 398.377 60.778,398.621 62.844,398.787 64.271 L 399.088 66.866 399.119 64.671 C 399.136 63.463,398.892 61.397,398.577 60.080 C 398.009 57.709,398.005 57.705,398.244 59.681 M1.673 61.108 C 1.752 61.344,1.987 61.537,2.196 61.537 C 2.404 61.537,2.639 61.344,2.718 61.108 C 2.797 60.872,2.562 60.679,2.196 60.679 C 1.830 60.679,1.595 60.872,1.673 61.108 M115.135 141.916 C 115.135 145.868,115.195 147.431,115.268 145.389 C 115.340 143.347,115.340 140.113,115.267 138.203 C 115.194 136.293,115.135 137.964,115.135 141.916 M141.218 202.295 C 146.322 202.358,154.676 202.358,159.780 202.295 C 164.885 202.232,160.709 202.180,150.499 202.180 C 140.289 202.180,136.113 202.232,141.218 202.295 M273.554 244.511 C 273.558 245.389,273.640 245.701,273.735 245.205 C 273.831 244.708,273.827 243.990,273.727 243.608 C 273.627 243.226,273.549 243.633,273.554 244.511 M273.554 248.902 C 273.558 249.780,273.640 250.093,273.735 249.596 C 273.831 249.100,273.827 248.381,273.727 247.999 C 273.627 247.618,273.549 248.024,273.554 248.902 M320.958 247.929 C 305.859 249.507,293.036 261.444,291.179 275.649 C 287.602 303.006,307.237 320.455,334.087 313.780 C 342.182 311.768,351.876 303.405,355.349 295.438 C 355.787 294.434,356.388 293.074,356.684 292.415 C 356.981 291.756,357.335 290.544,357.472 289.721 C 357.609 288.897,357.892 288.224,358.102 288.224 C 358.611 288.224,358.594 293.298,358.084 293.613 C 357.864 293.748,357.685 294.545,357.685 295.384 C 357.685 296.252,357.427 297.122,357.086 297.405 C 356.756 297.679,356.487 298.419,356.487 299.051 C 356.487 299.683,356.307 300.200,356.088 300.200 C 355.868 300.200,355.689 300.546,355.689 300.969 C 355.689 301.393,355.419 302.009,355.090 302.338 C 354.760 302.668,354.491 303.197,354.491 303.515 C 354.491 303.834,354.222 304.317,353.892 304.591 C 353.563 304.864,353.293 305.425,353.293 305.837 C 353.293 306.250,353.135 306.587,352.941 306.587 C 352.747 306.587,352.483 306.901,352.354 307.285 C 351.992 308.363,351.234 309.368,349.601 310.937 C 348.778 311.728,348.105 312.581,348.104 312.833 C 348.104 313.084,347.374 313.893,346.482 314.629 C 345.590 315.366,344.326 316.462,343.674 317.066 C 343.021 317.670,342.413 318.164,342.322 318.164 C 342.231 318.164,341.672 318.613,341.080 319.162 C 340.488 319.711,339.760 320.160,339.463 320.160 C 339.165 320.160,338.922 320.305,338.922 320.483 C 338.922 320.660,337.936 321.244,336.731 321.780 C 335.525 322.316,334.537 322.889,334.535 323.054 C 334.533 323.219,334.082 323.353,333.533 323.353 C 332.984 323.353,332.535 323.525,332.535 323.734 C 332.535 323.944,331.904 324.234,331.133 324.378 C 330.362 324.523,329.633 324.801,329.513 324.995 C 329.393 325.190,328.608 325.349,327.770 325.349 C 326.902 325.349,326.031 325.607,325.749 325.948 C 325.381 326.391,324.402 326.547,321.987 326.547 C 320.131 326.547,318.532 326.738,318.280 326.989 C 318.001 327.268,317.124 327.336,315.905 327.173 C 314.842 327.031,312.319 326.787,310.298 326.631 C 308.262 326.474,306.402 326.125,306.126 325.848 C 305.853 325.574,304.946 325.349,304.112 325.349 C 303.277 325.349,302.595 325.193,302.595 325.001 C 302.595 324.810,301.876 324.538,300.998 324.398 C 300.120 324.257,299.401 323.965,299.401 323.748 C 299.401 323.531,298.952 323.353,298.403 323.353 C 297.854 323.353,297.405 323.203,297.405 323.019 C 297.405 322.835,296.417 322.267,295.210 321.756 C 294.002 321.246,293.014 320.678,293.014 320.494 C 293.014 320.310,292.745 320.160,292.415 320.160 C 292.086 320.160,291.816 320.021,291.816 319.851 C 291.816 319.682,291.188 319.204,290.419 318.790 C 289.651 318.377,289.022 317.797,289.022 317.502 C 289.022 317.207,288.818 316.966,288.569 316.966 C 288.319 316.966,287.699 316.517,287.191 315.968 C 286.682 315.419,286.098 314.970,285.893 314.970 C 285.689 314.970,285.229 314.524,284.871 313.978 C 284.514 313.433,283.418 312.130,282.437 311.084 C 281.455 310.038,280.649 308.966,280.645 308.703 C 280.642 308.440,280.190 307.740,279.641 307.148 C 279.092 306.556,278.643 305.850,278.643 305.579 C 278.643 305.309,278.328 304.850,277.944 304.559 C 277.350 304.109,277.320 304.114,277.745 304.590 C 278.019 304.898,278.244 305.563,278.244 306.068 C 278.244 306.573,278.389 306.986,278.566 306.986 C 278.908 306.986,280.240 309.758,280.240 310.471 C 280.240 310.703,280.509 310.996,280.838 311.122 C 281.168 311.249,281.437 311.618,281.437 311.943 C 281.437 312.268,281.886 313.018,282.435 313.611 C 282.984 314.203,283.433 314.924,283.433 315.213 C 283.433 315.689,284.140 316.513,288.090 320.637 C 290.209 322.849,292.172 324.551,292.604 324.551 C 292.829 324.551,293.014 324.778,293.014 325.056 C 293.014 325.333,293.733 325.871,294.611 326.252 C 295.489 326.632,296.210 327.079,296.212 327.244 C 296.215 327.410,296.933 327.888,297.809 328.308 C 298.685 328.727,299.401 329.221,299.401 329.406 C 299.401 329.590,299.766 329.741,300.212 329.741 C 300.658 329.741,301.126 330.010,301.253 330.339 C 301.395 330.709,302.001 330.938,302.837 330.938 C 303.582 330.938,304.192 331.118,304.192 331.337 C 304.192 331.557,304.606 331.737,305.113 331.737 C 305.620 331.737,306.384 332.000,306.810 332.323 C 307.236 332.645,308.239 332.914,309.039 332.921 C 309.955 332.929,310.579 333.156,310.723 333.533 C 310.904 334.004,311.719 334.132,314.535 334.132 C 316.505 334.132,318.228 334.311,318.363 334.531 C 318.499 334.750,319.667 334.930,320.958 334.930 C 322.250 334.930,323.417 334.750,323.553 334.531 C 323.689 334.311,325.322 334.132,327.182 334.132 C 329.820 334.132,330.615 334.000,330.794 333.533 C 330.942 333.147,331.559 332.934,332.529 332.934 C 333.380 332.934,334.250 332.674,334.531 332.335 C 334.804 332.006,335.534 331.737,336.153 331.737 C 336.772 331.737,337.389 331.557,337.525 331.337 C 337.661 331.118,338.300 330.938,338.946 330.938 C 339.723 330.938,340.120 330.736,340.120 330.339 C 340.120 329.967,340.497 329.741,341.118 329.741 C 341.667 329.741,342.116 329.564,342.116 329.349 C 342.116 329.134,342.565 328.845,343.114 328.707 C 343.663 328.569,344.112 328.296,344.112 328.100 C 344.112 327.905,344.381 327.745,344.711 327.745 C 345.040 327.745,345.309 327.568,345.309 327.353 C 345.309 327.138,345.758 326.849,346.307 326.711 C 346.856 326.573,347.305 326.300,347.305 326.104 C 347.305 325.909,347.575 325.749,347.904 325.749 C 348.234 325.749,348.503 325.479,348.503 325.150 C 348.503 324.820,348.772 324.551,349.102 324.551 C 349.431 324.551,349.701 324.400,349.701 324.215 C 349.701 324.030,350.329 323.540,351.098 323.126 C 351.866 322.712,352.495 322.145,352.495 321.865 C 352.495 321.586,352.687 321.357,352.923 321.357 C 353.493 321.357,354.133 320.668,355.237 318.862 C 355.741 318.039,356.318 317.365,356.520 317.365 C 356.721 317.365,356.886 317.138,356.886 316.861 C 356.886 316.584,357.335 316.020,357.884 315.608 C 358.433 315.195,358.882 314.590,358.882 314.261 C 358.882 313.933,359.331 313.248,359.880 312.739 C 360.429 312.231,360.878 311.466,360.878 311.040 C 360.878 310.614,361.148 310.162,361.477 310.035 C 361.806 309.909,362.076 309.351,362.076 308.795 C 362.076 308.239,362.255 307.784,362.475 307.784 C 362.695 307.784,362.874 307.357,362.874 306.835 C 362.874 306.313,363.144 305.663,363.473 305.389 C 363.802 305.116,364.072 304.397,364.072 303.792 C 364.072 303.188,364.341 302.469,364.671 302.196 C 365.015 301.910,365.269 301.040,365.269 300.151 C 365.269 299.299,365.449 298.603,365.669 298.603 C 365.901 298.603,366.068 297.282,366.068 295.438 C 366.068 293.157,366.235 292.105,366.667 291.674 C 367.455 290.885,367.446 287.099,366.654 286.051 C 366.249 285.516,366.068 284.261,366.068 281.983 C 366.068 280.172,365.888 278.579,365.669 278.443 C 365.449 278.307,365.269 277.508,365.269 276.666 C 365.269 275.674,365.059 275.055,364.671 274.906 C 364.328 274.774,364.072 274.178,364.072 273.515 C 364.072 272.876,363.802 272.130,363.473 271.856 C 363.144 271.583,362.874 270.842,362.874 270.211 C 362.874 269.579,362.695 269.062,362.475 269.062 C 362.255 269.062,362.076 268.712,362.076 268.283 C 362.076 267.855,361.850 267.361,361.573 267.186 C 361.296 267.010,360.716 266.193,360.285 265.369 C 359.853 264.546,359.360 263.872,359.191 263.872 C 359.021 263.872,358.882 263.556,358.882 263.170 C 358.882 262.783,358.433 261.983,357.884 261.391 C 357.335 260.799,356.886 260.127,356.886 259.898 C 356.886 259.669,356.617 259.481,356.287 259.481 C 355.958 259.481,355.689 259.323,355.689 259.129 C 355.689 258.612,350.854 253.804,350.594 254.063 C 350.473 254.184,350.851 254.726,351.434 255.266 C 352.018 255.807,352.495 256.376,352.495 256.530 C 352.495 256.685,352.944 257.400,353.493 258.119 C 354.042 258.839,354.491 259.690,354.491 260.010 C 354.491 260.331,354.760 260.697,355.090 260.823 C 355.419 260.949,355.689 261.407,355.689 261.840 C 355.689 262.273,355.868 262.739,356.088 262.874 C 356.307 263.010,356.487 263.540,356.487 264.053 C 356.487 264.565,356.756 265.088,357.086 265.214 C 357.506 265.376,357.685 266.032,357.685 267.419 C 357.685 268.607,357.877 269.459,358.166 269.555 C 358.469 269.656,358.655 270.611,358.665 272.122 C 358.675 273.485,358.908 274.799,359.202 275.153 C 359.809 275.885,359.708 280.592,359.082 280.743 C 358.853 280.797,358.631 279.650,358.563 278.055 C 358.497 276.524,358.266 275.162,358.049 275.029 C 357.833 274.895,357.558 274.082,357.437 273.221 C 357.316 272.361,356.976 271.118,356.681 270.459 C 356.386 269.800,355.754 268.363,355.275 267.265 C 352.328 260.504,342.913 251.463,337.100 249.813 C 330.151 247.839,326.212 247.380,320.958 247.929 M329.341 253.820 C 336.573 256.132,341.329 261.559,343.355 269.811 C 344.303 273.672,344.394 279.908,343.513 280.639 C 343.184 280.912,342.914 281.548,342.914 282.052 C 342.914 282.556,342.473 283.847,341.934 284.921 C 341.357 286.069,341.031 287.275,341.143 287.848 C 341.312 288.712,341.291 288.732,340.954 288.024 C 340.746 287.585,340.562 287.436,340.547 287.693 C 340.488 288.676,335.458 293.262,333.221 294.372 C 331.952 295.002,331.009 295.613,331.126 295.730 C 331.667 296.271,336.833 292.738,338.836 290.456 C 340.476 288.588,340.721 289.955,339.122 292.051 C 338.573 292.771,338.124 293.477,338.124 293.620 C 338.124 294.137,333.920 298.269,332.546 299.103 C 331.771 299.573,331.048 300.070,330.938 300.208 C 330.828 300.345,330.469 300.578,330.140 300.725 C 329.810 300.872,329.271 301.159,328.942 301.361 C 327.700 302.126,325.398 302.994,324.614 302.994 C 324.166 302.994,323.689 303.174,323.553 303.393 C 323.406 303.631,320.829 303.792,317.166 303.792 C 313.503 303.792,310.926 303.631,310.778 303.393 C 310.643 303.174,310.255 302.994,309.917 302.994 C 309.314 302.994,306.968 302.074,305.788 301.375 C 305.459 301.180,304.561 300.708,303.792 300.327 C 302.096 299.485,296.234 293.654,295.426 292.006 C 295.107 291.353,294.643 290.549,294.397 290.220 C 293.847 289.483,292.615 285.605,292.615 284.608 C 292.615 284.208,292.435 283.768,292.216 283.633 C 291.051 282.913,291.981 272.101,293.442 269.367 C 293.646 268.985,293.812 268.478,293.812 268.239 C 293.812 264.440,305.546 254.286,309.928 254.293 L 311.178 254.296 309.734 255.192 C 297.841 262.572,295.646 279.492,305.262 289.659 C 307.157 291.662,311.784 294.998,312.703 295.023 C 312.962 295.030,313.522 295.299,313.949 295.621 C 314.375 295.944,315.303 296.208,316.011 296.208 C 316.719 296.208,317.374 296.432,317.465 296.706 C 317.717 297.462,327.057 297.217,329.142 296.400 L 330.739 295.774 328.942 296.086 C 326.594 296.494,319.202 296.461,317.166 296.034 C 312.351 295.024,302.994 288.058,302.994 285.484 C 302.994 285.234,302.859 285.029,302.695 285.028 C 302.376 285.027,301.454 282.797,300.550 279.840 C 297.797 270.843,303.292 258.602,311.776 254.834 C 312.325 254.590,313.313 254.156,313.972 253.869 C 316.924 252.583,325.388 252.555,329.341 253.820 M201.771 271.557 L 200.599 272.854 201.896 271.682 C 203.106 270.589,203.377 270.259,203.069 270.259 C 203.000 270.259,202.416 270.843,201.771 271.557 M359.271 285.200 C 358.742 285.729,358.413 285.277,358.729 284.455 C 358.937 283.913,359.063 283.879,359.320 284.295 C 359.500 284.586,359.478 284.993,359.271 285.200 M398.872 334.132 C 398.829 335.120,398.706 336.647,398.600 337.525 L 398.406 339.122 398.824 337.792 C 399.053 337.061,399.176 335.534,399.096 334.399 L 398.950 332.335 398.872 334.132 M165.369 335.216 C 165.973 335.308,166.961 335.308,167.565 335.216 C 168.169 335.125,167.675 335.050,166.467 335.050 C 165.259 335.050,164.765 335.125,165.369 335.216 M1.597 337.891 C 1.597 338.239,1.881 338.523,2.229 338.523 C 2.934 338.523,2.811 337.664,2.071 337.417 C 1.810 337.330,1.597 337.543,1.597 337.891 M397.302 346.374 C 397.249 347.069,396.981 347.729,396.707 347.839 C 396.307 348.000,396.307 348.047,396.707 348.072 C 397.100 348.097,397.206 353.217,397.206 372.255 L 397.206 396.407 373.054 396.407 C 354.002 396.407,348.901 396.302,348.896 395.908 C 348.892 395.541,348.812 395.532,348.595 395.872 C 348.433 396.127,347.762 396.414,347.104 396.511 C 346.447 396.608,357.456 396.714,371.569 396.747 C 391.775 396.794,397.271 396.700,397.421 396.307 C 397.526 396.033,397.564 384.401,397.506 370.459 C 397.447 356.517,397.356 345.679,397.302 346.374 M386.316 368.995 C 385.871 370.126,385.943 370.703,386.465 370.182 C 386.705 369.942,386.834 369.412,386.752 369.004 C 386.608 368.290,386.593 368.289,386.316 368.995 M14.226 369.858 C 14.352 370.186,14.616 370.355,14.812 370.234 C 15.376 369.885,15.229 369.261,14.583 369.261 C 14.227 369.261,14.087 369.496,14.226 369.858 M382.507 373.855 C 381.490 375.025,381.396 375.649,382.236 375.649 C 382.594 375.649,382.834 375.281,382.834 374.731 C 382.834 374.226,383.050 373.597,383.313 373.333 C 383.577 373.070,383.699 372.854,383.585 372.854 C 383.471 372.854,382.986 373.305,382.507 373.855 M18.363 375.050 C 18.363 375.379,18.633 375.649,18.962 375.649 C 19.291 375.649,19.561 375.379,19.561 375.050 C 19.561 374.721,19.291 374.451,18.962 374.451 C 18.633 374.451,18.363 374.721,18.363 375.050 M24.750 381.211 C 24.750 381.660,26.311 382.206,26.644 381.873 C 26.773 381.743,26.580 381.637,26.214 381.637 C 25.848 381.637,25.549 381.457,25.549 381.238 C 25.549 381.018,25.369 380.838,25.150 380.838 C 24.930 380.838,24.750 381.006,24.750 381.211 M374.451 381.902 C 373.654 382.712,373.614 382.834,374.251 382.505 C 374.691 382.279,375.364 381.997,375.749 381.878 C 376.133 381.759,376.447 381.477,376.447 381.250 C 376.447 380.535,375.486 380.849,374.451 381.902 M369.713 385.479 C 369.238 386.016,369.279 386.079,370.028 385.962 C 370.502 385.889,370.896 385.653,370.904 385.439 C 370.927 384.799,370.297 384.820,369.713 385.479 M29.940 385.629 C 29.940 385.848,30.434 386.025,31.038 386.022 C 31.893 386.017,32.004 385.930,31.537 385.629 C 30.756 385.124,29.940 385.124,29.940 385.629 M60.180 397.487 C 60.674 397.582,61.078 397.917,61.078 398.231 C 61.078 398.545,61.437 398.802,61.876 398.802 C 63.154 398.802,62.797 397.729,61.427 397.455 C 60.741 397.318,59.978 397.230,59.731 397.260 C 59.484 397.290,59.686 397.392,60.180 397.487 M335.529 398.004 L 333.134 398.269 335.529 398.296 C 336.846 398.311,338.373 398.180,338.922 398.004 L 339.920 397.684 338.922 397.712 C 338.373 397.727,336.846 397.858,335.529 398.004 M63.318 398.331 C 63.207 398.511,63.645 398.580,64.293 398.485 C 64.940 398.390,65.469 398.243,65.469 398.158 C 65.469 397.854,63.516 398.011,63.318 398.331 M84.935 398.686 C 85.431 398.781,86.150 398.777,86.532 398.677 C 86.913 398.578,86.507 398.499,85.629 398.504 C 84.750 398.508,84.438 398.590,84.935 398.686 M189.526 398.686 C 190.022 398.781,190.741 398.777,191.122 398.677 C 191.504 398.578,191.098 398.499,190.220 398.504 C 189.341 398.508,189.029 398.590,189.526 398.686 " stroke="none" fill="#bcba59" fill-rule="evenodd"></path><path id="path4" d="M62.521 0.974 C 62.763 1.605,60.286 2.294,59.507 1.812 C 59.273 1.668,59.082 1.767,59.082 2.032 C 59.082 2.612,65.765 2.259,66.378 1.646 C 67.101 0.923,66.211 0.399,64.260 0.399 C 62.719 0.399,62.348 0.522,62.521 0.974 M188.774 0.910 C 188.967 1.102,189.640 1.196,190.271 1.117 C 191.326 0.985,191.298 0.958,189.921 0.767 C 189.062 0.648,188.573 0.709,188.774 0.910 M334.315 0.825 C 333.937 1.437,334.282 1.656,336.212 2.029 C 338.713 2.513,341.627 2.465,341.954 1.934 C 342.136 1.640,342.063 1.582,341.752 1.774 C 340.927 2.284,338.424 1.632,338.677 0.974 C 338.946 0.272,334.745 0.128,334.315 0.825 M84.935 1.081 C 85.431 1.176,86.150 1.173,86.532 1.073 C 86.913 0.973,86.507 0.895,85.629 0.899 C 84.750 0.904,84.438 0.985,84.935 1.081 M293.912 1.074 C 294.296 1.174,294.925 1.174,295.309 1.074 C 295.694 0.973,295.379 0.891,294.611 0.891 C 293.842 0.891,293.528 0.973,293.912 1.074 M56.687 2.196 C 56.687 2.549,56.318 2.797,55.788 2.801 C 55.147 2.805,55.042 2.903,55.421 3.143 C 56.237 3.660,58.460 3.059,58.610 2.280 C 58.706 1.778,58.468 1.597,57.714 1.597 C 57.067 1.597,56.687 1.818,56.687 2.196 M342.588 2.280 C 342.738 3.059,344.961 3.660,345.777 3.143 C 346.156 2.903,346.051 2.805,345.409 2.801 C 344.880 2.797,344.511 2.549,344.511 2.196 C 344.511 1.818,344.131 1.597,343.484 1.597 C 342.729 1.597,342.491 1.778,342.588 2.280 M52.295 3.440 C 52.295 3.889,52.052 4.022,51.496 3.876 C 51.057 3.761,50.798 3.830,50.921 4.029 C 51.178 4.445,52.336 4.504,53.261 4.149 C 54.165 3.802,54.041 2.794,53.094 2.794 C 52.625 2.794,52.295 3.061,52.295 3.440 M346.906 3.180 C 346.906 4.090,349.789 4.817,350.276 4.029 C 350.399 3.830,350.143 3.761,349.706 3.875 C 349.202 4.007,348.822 3.847,348.665 3.439 C 348.401 2.752,346.906 2.532,346.906 3.180 M49.102 4.192 C 49.102 4.610,48.680 4.790,47.705 4.790 C 46.685 4.790,46.307 4.965,46.307 5.435 C 46.307 5.920,46.019 6.036,45.137 5.907 C 44.277 5.781,43.920 5.915,43.789 6.414 C 43.660 6.908,43.325 7.039,42.564 6.894 C 41.783 6.744,41.517 6.857,41.517 7.339 C 41.517 7.753,41.175 7.984,40.562 7.984 C 40.036 7.984,39.498 8.266,39.366 8.610 C 39.213 9.010,38.854 9.150,38.375 8.998 C 37.844 8.830,37.564 8.990,37.419 9.544 C 37.270 10.113,36.983 10.267,36.371 10.107 C 35.771 9.950,35.529 10.072,35.529 10.532 C 35.529 10.959,35.182 11.178,34.507 11.178 C 33.928 11.178,33.593 11.350,33.733 11.577 C 33.868 11.796,33.609 11.976,33.157 11.976 C 32.705 11.976,32.335 12.206,32.335 12.486 C 32.335 13.419,30.786 14.398,29.730 14.133 C 28.986 13.947,28.743 14.044,28.743 14.528 C 28.743 14.881,28.563 15.170,28.343 15.170 C 28.124 15.170,27.944 15.399,27.944 15.680 C 27.944 16.548,26.363 17.619,25.423 17.388 C 24.943 17.270,24.775 17.276,25.050 17.402 C 25.744 17.721,25.679 18.499,24.980 18.231 C 24.381 18.001,21.557 20.393,21.557 21.131 C 21.557 21.365,21.353 21.557,21.105 21.557 C 20.324 21.557,19.234 23.143,19.449 23.966 C 19.590 24.507,19.454 24.750,19.009 24.750 C 18.654 24.750,18.363 25.020,18.363 25.349 C 18.363 25.679,18.184 25.948,17.964 25.948 C 17.745 25.948,17.565 26.203,17.565 26.515 C 17.565 26.827,17.026 27.201,16.367 27.345 C 15.370 27.564,15.170 27.803,15.170 28.774 C 15.170 29.415,14.990 29.940,14.770 29.940 C 14.551 29.940,14.371 30.225,14.371 30.574 C 14.371 30.922,13.832 31.410,13.174 31.659 C 12.515 31.908,11.976 32.271,11.976 32.466 C 11.976 32.660,12.246 32.717,12.575 32.590 C 12.904 32.464,13.174 32.534,13.174 32.747 C 13.174 32.960,13.015 33.134,12.821 33.134 C 12.627 33.134,12.374 33.493,12.260 33.932 C 12.145 34.371,11.781 34.731,11.452 34.731 C 11.050 34.731,10.922 34.993,11.062 35.529 C 11.207 36.084,11.074 36.327,10.625 36.327 C 10.203 36.327,9.980 36.672,9.980 37.325 C 9.980 37.976,9.757 38.323,9.338 38.323 C 8.852 38.323,8.757 38.567,8.946 39.321 C 9.131 40.058,9.038 40.319,8.590 40.319 C 8.183 40.319,7.984 40.712,7.984 41.517 C 7.984 42.322,7.785 42.715,7.378 42.715 C 6.926 42.715,6.837 42.976,7.028 43.737 C 7.234 44.560,7.119 44.803,6.437 44.981 C 5.377 45.258,5.317 46.307,6.360 46.307 C 6.820 46.307,7.233 45.944,7.383 45.409 C 7.521 44.915,8.052 43.613,8.563 42.515 C 9.075 41.417,9.597 40.250,9.724 39.920 C 9.851 39.591,10.497 38.423,11.160 37.325 C 11.822 36.228,12.489 35.060,12.640 34.731 C 12.791 34.401,13.333 33.576,13.843 32.896 C 14.353 32.217,14.770 31.485,14.770 31.269 C 14.770 31.054,15.220 30.456,15.768 29.940 C 16.317 29.424,16.766 28.784,16.766 28.516 C 16.766 28.248,17.036 27.926,17.365 27.800 C 17.695 27.673,17.964 27.368,17.964 27.122 C 17.964 26.610,26.267 18.274,28.278 16.766 C 29.011 16.218,29.819 15.577,30.074 15.344 C 31.360 14.168,36.839 10.860,40.319 9.159 C 41.307 8.676,42.206 8.154,42.315 7.998 C 42.425 7.842,42.874 7.607,43.313 7.476 C 45.544 6.811,47.293 6.025,47.425 5.628 C 47.507 5.384,47.748 5.292,47.961 5.424 C 48.174 5.556,48.788 5.554,49.324 5.419 C 50.403 5.148,50.724 3.593,49.701 3.593 C 49.371 3.593,49.102 3.862,49.102 4.192 M350.898 4.384 C 350.898 5.213,352.480 5.892,353.271 5.403 C 353.503 5.260,353.693 5.337,353.693 5.575 C 353.693 5.813,354.187 6.187,354.790 6.405 C 358.221 7.648,365.284 11.283,367.395 12.893 C 368.173 13.487,368.986 13.972,369.202 13.972 C 369.417 13.972,369.654 14.107,369.727 14.271 C 369.800 14.436,370.931 15.379,372.239 16.367 C 375.262 18.650,381.600 24.996,383.764 27.906 C 384.677 29.134,385.517 30.230,385.630 30.339 C 385.966 30.666,388.149 34.038,388.861 35.329 C 389.224 35.988,389.901 37.156,390.366 37.924 C 390.830 38.693,391.322 39.591,391.457 39.920 C 391.592 40.250,392.068 41.327,392.514 42.315 C 392.960 43.303,393.447 44.561,393.597 45.110 C 393.903 46.228,395.210 46.737,395.210 45.738 C 395.210 45.392,394.918 45.110,394.561 45.110 C 394.053 45.110,393.964 44.850,394.152 43.912 C 394.331 43.015,394.244 42.715,393.802 42.715 C 393.414 42.715,393.214 42.306,393.214 41.517 C 393.214 40.719,393.014 40.319,392.615 40.319 C 392.242 40.319,392.016 39.942,392.016 39.321 C 392.016 38.746,391.786 38.323,391.473 38.323 C 391.108 38.323,390.992 37.995,391.120 37.325 C 391.260 36.594,391.138 36.327,390.665 36.327 C 390.286 36.327,390.020 35.998,390.020 35.529 C 390.020 35.085,389.754 34.731,389.421 34.731 C 389.088 34.731,388.822 34.376,388.822 33.932 C 388.822 33.493,388.643 33.134,388.423 33.134 C 388.204 33.134,388.024 32.774,388.024 32.335 C 388.024 31.896,387.783 31.537,387.489 31.537 C 386.880 31.537,386.028 29.891,386.028 28.715 C 386.028 28.239,385.594 27.735,384.930 27.443 C 384.326 27.176,383.604 26.650,383.324 26.273 C 383.045 25.896,382.551 25.323,382.227 24.998 C 381.902 24.674,381.637 24.023,381.637 23.553 C 381.637 22.645,380.782 21.557,380.068 21.557 C 379.833 21.557,379.641 21.287,379.641 20.958 C 379.641 20.629,379.371 20.359,379.042 20.359 C 378.713 20.359,378.443 20.167,378.443 19.932 C 378.443 19.170,377.329 18.363,376.276 18.363 C 375.711 18.363,375.250 18.222,375.250 18.050 C 375.250 17.878,374.724 17.427,374.083 17.048 C 373.366 16.625,372.813 15.889,372.649 15.142 C 372.407 14.042,372.270 13.949,371.221 14.180 C 370.499 14.338,370.060 14.272,370.060 14.004 C 370.060 13.767,369.790 13.573,369.461 13.573 C 369.128 13.573,368.862 13.218,368.862 12.774 C 368.862 12.335,368.620 11.976,368.325 11.976 C 367.485 11.976,365.269 10.766,365.269 10.307 C 365.269 10.080,364.983 10.004,364.634 10.139 C 364.205 10.303,363.927 10.112,363.781 9.553 C 363.613 8.911,363.351 8.777,362.620 8.960 C 361.938 9.131,361.677 9.029,361.677 8.590 C 361.677 8.210,361.305 7.984,360.679 7.984 C 360.026 7.984,359.681 7.761,359.681 7.339 C 359.681 6.857,359.414 6.744,358.633 6.894 C 357.849 7.043,357.538 6.909,357.394 6.360 C 357.244 5.786,356.950 5.676,356.046 5.857 C 355.150 6.036,354.890 5.942,354.890 5.439 C 354.890 4.964,354.517 4.790,353.493 4.790 C 352.517 4.790,352.096 4.610,352.096 4.192 C 352.096 3.862,351.826 3.593,351.497 3.593 C 351.166 3.593,350.898 3.947,350.898 4.384 M82.834 32.216 C 81.737 32.291,80.479 32.501,80.040 32.683 C 78.649 33.260,76.489 33.992,75.250 34.306 C 74.226 34.565,72.501 35.414,69.076 37.345 C 65.889 39.141,60.067 45.082,58.385 48.254 C 55.793 53.142,55.090 54.843,55.090 56.221 C 55.090 56.828,54.865 57.550,54.591 57.824 C 54.079 58.337,53.581 332.753,54.089 334.835 L 54.309 335.738 116.276 335.599 C 170.796 335.476,178.843 335.380,183.234 334.806 C 193.349 333.483,194.157 333.362,194.777 333.089 C 195.125 332.935,196.397 332.672,197.605 332.504 C 200.296 332.129,203.821 331.243,204.225 330.838 C 204.390 330.674,204.988 330.535,205.556 330.530 C 206.123 330.525,208.383 329.880,210.579 329.095 C 212.774 328.310,214.930 327.578,215.369 327.467 C 215.808 327.356,216.734 327.014,217.426 326.707 C 218.117 326.399,218.864 326.148,219.085 326.148 C 219.306 326.148,220.357 325.717,221.420 325.190 C 222.483 324.663,225.060 323.405,227.146 322.394 C 236.993 317.620,242.678 313.575,251.829 304.829 C 254.799 301.990,261.871 292.503,263.760 288.822 C 266.937 282.633,268.332 279.593,269.258 276.846 C 269.628 275.749,270.095 274.538,270.295 274.157 C 270.495 273.776,270.659 273.001,270.659 272.434 C 270.659 271.868,270.871 271.012,271.131 270.533 C 271.391 270.053,271.756 268.852,271.942 267.864 C 272.128 266.876,272.549 264.631,272.878 262.874 C 274.631 253.513,274.621 238.897,272.856 230.739 C 272.500 229.092,272.059 227.026,271.876 226.148 C 271.536 224.517,270.804 222.270,270.233 221.107 C 270.058 220.750,269.792 219.805,269.643 219.007 C 269.493 218.209,269.211 217.458,269.017 217.337 C 268.822 217.217,268.663 216.811,268.663 216.436 C 268.663 216.061,267.944 214.323,267.066 212.575 C 266.188 210.827,265.469 209.236,265.469 209.040 C 265.469 208.844,264.750 207.607,263.872 206.292 C 262.994 204.977,262.275 203.804,262.275 203.685 C 262.275 203.566,261.826 202.880,261.277 202.160 C 260.729 201.440,260.279 200.705,260.278 200.526 C 260.277 200.346,259.064 198.902,257.583 197.316 C 256.102 195.730,253.992 193.441,252.894 192.228 C 251.796 191.015,250.774 190.023,250.622 190.022 C 250.471 190.021,249.393 189.101,248.227 187.977 C 246.420 186.235,237.734 180.099,236.527 179.712 C 234.829 179.168,228.743 175.885,228.746 175.515 C 228.749 175.053,229.407 174.443,235.130 169.604 C 238.922 166.396,244.336 160.917,246.464 158.133 C 248.759 155.130,251.459 151.247,251.912 150.299 C 252.122 149.860,252.459 149.232,252.662 148.902 C 253.087 148.211,256.218 141.507,256.671 140.319 C 256.838 139.880,257.270 138.841,257.629 138.010 C 257.989 137.180,258.283 136.234,258.283 135.909 C 258.283 135.584,258.450 135.007,258.654 134.625 C 259.361 133.301,260.279 129.782,260.279 128.394 C 260.279 127.626,260.480 126.492,260.726 125.874 C 262.302 121.909,262.287 99.612,260.706 96.659 C 260.472 96.220,260.279 95.077,260.279 94.118 C 260.279 93.160,260.119 92.205,259.922 91.996 C 259.726 91.787,259.378 90.808,259.149 89.820 C 258.266 86.006,257.931 84.917,257.516 84.502 C 257.279 84.265,257.086 83.765,257.086 83.390 C 257.086 82.806,255.777 79.801,254.671 77.844 C 254.484 77.515,253.739 76.078,253.014 74.651 C 252.290 73.224,251.559 71.876,251.390 71.657 C 251.222 71.437,250.131 69.910,248.967 68.263 C 242.922 59.713,232.238 50.206,224.152 46.181 C 223.713 45.963,223.084 45.627,222.754 45.435 C 222.425 45.244,221.841 44.981,221.457 44.852 C 221.073 44.723,220.758 44.459,220.758 44.265 C 220.758 44.071,220.561 43.912,220.320 43.912 C 219.884 43.912,219.367 43.696,214.371 41.428 C 209.750 39.329,202.872 36.989,199.800 36.470 C 199.142 36.359,198.333 36.159,198.004 36.025 C 196.986 35.612,192.727 34.699,190.419 34.399 C 189.212 34.242,187.971 33.955,187.663 33.761 C 187.354 33.568,185.378 33.254,183.272 33.063 C 181.165 32.873,177.824 32.558,175.848 32.364 C 172.550 32.040,87.403 31.905,82.834 32.216 M171.657 32.745 C 179.652 33.236,184.218 33.721,188.423 34.527 C 190.289 34.885,192.625 35.324,193.613 35.501 C 225.254 41.195,251.753 63.378,258.705 89.992 C 262.236 103.510,262.055 125.015,258.332 134.169 C 258.117 134.698,257.450 136.477,256.851 138.124 C 254.206 145.384,250.129 152.641,245.514 158.301 C 241.601 163.101,240.834 163.894,236.727 167.405 C 234.641 169.188,232.844 170.748,232.735 170.873 C 232.625 170.998,231.435 172.007,230.091 173.115 C 228.210 174.666,227.727 175.275,227.996 175.756 C 228.441 176.550,235.209 180.040,236.304 180.040 C 236.756 180.040,237.126 180.182,237.126 180.355 C 237.126 180.528,238.877 181.819,241.018 183.224 C 245.394 186.096,252.180 191.818,254.291 194.416 C 255.060 195.362,256.285 196.780,257.015 197.569 C 258.820 199.521,263.884 207.263,265.197 210.080 C 265.786 211.342,266.701 213.318,267.230 214.471 C 268.709 217.690,271.351 226.157,272.056 229.940 C 272.404 231.806,272.852 234.052,273.052 234.930 C 274.118 239.616,273.818 253.934,272.487 261.876 C 271.843 265.721,271.757 266.102,270.328 271.497 C 268.639 277.871,263.685 288.586,260.147 293.518 C 256.775 298.217,252.367 303.655,250.680 305.199 C 249.725 306.072,247.857 307.785,246.528 309.006 C 242.415 312.784,228.888 321.756,227.306 321.756 C 227.224 321.756,225.287 322.637,223.000 323.713 C 215.429 327.274,203.206 331.072,194.611 332.532 C 179.313 335.131,182.309 335.029,115.808 335.212 C 65.866 335.350,54.909 335.286,54.636 334.856 C 53.987 333.832,54.220 64.574,54.874 60.279 C 57.070 45.851,67.869 35.284,82.834 32.919 C 86.764 32.298,161.967 32.151,171.657 32.745 M6.042 47.405 C 6.012 47.913,5.728 48.303,5.389 48.303 C 5.060 48.303,4.790 48.573,4.790 48.902 C 4.790 49.664,5.941 49.688,6.232 48.931 C 6.352 48.618,6.371 47.944,6.274 47.434 L 6.097 46.507 6.042 47.405 M394.707 46.972 C 394.274 47.640,395.077 49.501,395.799 49.501 C 396.133 49.501,396.407 49.232,396.407 48.902 C 396.407 48.573,396.150 48.303,395.836 48.303 C 395.522 48.303,395.207 47.899,395.137 47.405 C 395.055 46.831,394.900 46.675,394.707 46.972 M4.790 50.699 C 4.790 51.142,4.524 51.497,4.192 51.497 C 3.859 51.497,3.593 51.852,3.593 52.295 C 3.593 53.315,4.635 53.332,5.176 52.322 C 5.702 51.338,5.710 49.900,5.190 49.900 C 4.970 49.900,4.790 50.259,4.790 50.699 M395.609 50.725 C 395.609 51.741,396.301 53.094,396.820 53.094 C 397.466 53.094,397.249 51.599,396.565 51.337 C 396.200 51.196,396.023 50.836,396.154 50.496 C 396.279 50.168,396.208 49.900,395.995 49.900 C 395.783 49.900,395.609 50.271,395.609 50.725 M3.838 54.467 C 3.978 54.830,3.812 55.184,3.435 55.329 C 2.645 55.632,2.573 57.485,3.351 57.485 C 4.309 57.485,4.854 54.625,3.997 54.095 C 3.771 53.955,3.703 54.114,3.838 54.467 M396.843 55.195 C 396.823 56.021,396.971 57.009,397.172 57.391 C 398.563 60.032,398.603 64.012,398.603 199.601 C 398.603 335.190,398.563 339.170,397.172 341.811 C 396.971 342.192,396.822 343.180,396.841 344.007 L 396.875 345.509 397.240 344.311 C 399.081 338.270,399.002 344.722,399.002 200.000 C 399.002 58.534,399.042 62.110,397.392 55.689 L 396.879 53.693 396.843 55.195 M2.900 58.531 C 3.272 59.133,2.569 61.686,2.062 61.577 C 1.752 61.510,1.597 62.210,1.597 63.673 C 1.597 66.202,2.604 66.866,2.959 64.571 C 3.556 60.715,3.620 58.746,3.156 58.460 C 2.889 58.295,2.774 58.327,2.900 58.531 M131.737 82.645 C 127.299 83.263,123.656 85.112,120.333 88.435 C 115.018 93.750,114.522 98.766,115.236 140.051 L 115.500 155.352 142.680 155.189 L 169.860 155.026 174.052 153.917 C 178.742 152.678,183.278 150.588,186.483 148.190 C 203.844 135.204,204.627 103.085,187.892 90.337 C 186.538 89.305,185.339 88.340,185.230 88.193 C 185.037 87.936,183.207 87.065,179.840 85.629 C 177.063 84.444,170.803 83.021,166.667 82.635 C 161.959 82.196,134.914 82.204,131.737 82.645 M164.671 83.057 C 166.427 83.266,168.942 83.542,170.259 83.671 C 171.577 83.799,173.221 84.158,173.913 84.467 C 174.604 84.777,175.604 85.030,176.133 85.030 C 176.663 85.030,178.027 85.479,179.165 86.028 C 180.303 86.577,181.400 87.026,181.602 87.026 C 182.015 87.026,184.519 88.293,184.830 88.659 C 184.940 88.788,185.763 89.420,186.659 90.063 C 189.557 92.143,190.690 93.236,192.510 95.709 C 194.264 98.092,197.206 103.707,197.206 104.672 C 197.206 105.190,198.229 108.226,198.862 109.587 C 199.376 110.693,199.050 125.027,198.448 127.745 C 197.929 130.092,196.078 135.280,195.537 135.908 C 195.357 136.117,195.210 136.506,195.210 136.772 C 195.210 139.196,187.702 147.305,183.362 149.569 C 182.869 149.826,181.965 150.299,181.353 150.621 C 179.366 151.663,177.479 152.417,175.848 152.819 C 174.970 153.036,173.443 153.447,172.455 153.733 C 171.078 154.132,164.316 154.283,143.464 154.380 L 116.270 154.507 115.974 131.234 C 115.607 102.320,115.855 97.204,117.814 93.319 C 118.006 92.938,118.164 92.424,118.164 92.179 C 118.164 91.687,120.549 88.510,121.094 88.277 C 121.281 88.197,122.001 87.652,122.693 87.067 C 125.212 84.937,128.627 83.625,133.134 83.058 C 136.650 82.615,160.947 82.615,164.671 83.057 M1.996 188.942 L 2.196 294.810 2.296 189.242 C 2.351 131.180,2.262 83.539,2.097 83.374 C 1.931 83.209,1.886 130.715,1.996 188.942 M148.902 202.389 C 127.076 202.627,128.482 202.488,123.952 204.862 C 120.391 206.730,117.792 210.322,116.283 215.466 C 115.542 217.994,114.943 283.167,115.655 283.878 C 116.284 284.508,175.017 284.316,178.856 283.672 C 191.350 281.576,202.009 274.272,206.875 264.471 C 221.685 234.642,202.591 201.010,171.457 202.085 C 170.140 202.131,159.990 202.267,148.902 202.389 M182.236 203.698 C 187.274 205.230,193.101 208.167,196.479 210.877 C 197.506 211.701,198.443 212.375,198.561 212.375 C 198.915 212.375,200.909 214.457,202.385 216.368 C 203.148 217.356,203.866 218.253,203.982 218.363 C 204.452 218.810,206.786 222.399,206.780 222.666 C 206.777 222.825,207.254 223.942,207.840 225.150 C 209.090 227.725,209.286 228.224,210.192 231.138 C 210.958 233.600,211.128 251.401,210.402 253.179 C 210.197 253.681,209.631 255.439,209.145 257.086 C 208.658 258.733,208.128 260.349,207.967 260.679 C 207.806 261.008,207.169 262.355,206.550 263.673 C 202.881 271.488,194.107 278.878,185.429 281.463 C 184.551 281.724,183.383 282.130,182.834 282.364 C 180.662 283.289,174.292 283.516,145.804 283.683 L 116.159 283.857 116.273 250.611 C 116.396 214.786,116.317 216.136,118.578 211.377 C 120.656 207.004,124.761 204.192,130.539 203.183 C 134.087 202.563,180.007 203.021,182.236 203.698 M307.784 242.153 C 282.064 247.572,267.730 273.724,275.311 301.397 C 277.409 309.058,280.487 314.349,287.286 321.987 C 288.255 323.075,293.317 327.345,293.639 327.345 C 293.776 327.345,294.452 327.750,295.140 328.244 C 297.394 329.862,299.573 330.973,304.192 332.858 C 305.785 333.508,308.986 334.439,311.577 335.005 C 314.777 335.705,326.764 335.701,329.940 335.000 C 333.132 334.295,336.637 333.245,337.106 332.852 C 337.314 332.678,337.733 332.535,338.036 332.535 C 341.095 332.535,352.494 324.472,356.502 319.473 C 357.696 317.984,358.764 316.677,358.877 316.567 C 359.698 315.767,361.864 312.094,363.262 309.132 C 364.182 307.183,365.100 305.277,365.302 304.896 C 365.503 304.514,365.669 303.892,365.669 303.512 C 365.669 303.132,365.918 302.097,366.223 301.211 C 367.496 297.511,367.809 295.032,367.809 288.623 C 367.809 282.234,367.634 280.826,366.173 275.449 C 365.486 272.923,364.227 269.722,362.955 267.265 C 359.736 261.055,356.044 256.489,350.411 251.755 C 348.936 250.515,347.605 249.501,347.455 249.501 C 347.304 249.501,346.625 249.088,345.946 248.582 C 344.726 247.675,341.827 246.209,338.723 244.931 C 337.844 244.569,336.814 244.102,336.433 243.893 C 336.051 243.684,335.234 243.513,334.616 243.513 C 333.998 243.513,333.301 243.321,333.067 243.086 C 331.745 241.765,312.922 241.070,307.784 242.153 M333.333 248.795 C 334.980 249.234,336.675 249.692,337.100 249.813 C 342.913 251.463,352.328 260.504,355.275 267.265 C 355.754 268.363,356.386 269.800,356.681 270.459 C 356.976 271.118,357.316 272.361,357.437 273.221 C 357.558 274.082,357.833 274.895,358.049 275.029 C 358.266 275.162,358.497 276.524,358.563 278.055 C 358.631 279.650,358.853 280.797,359.082 280.743 C 359.708 280.592,359.809 275.885,359.202 275.153 C 358.908 274.799,358.675 273.485,358.665 272.122 C 358.655 270.611,358.469 269.656,358.166 269.555 C 357.877 269.459,357.685 268.607,357.685 267.419 C 357.685 266.032,357.506 265.376,357.086 265.214 C 356.756 265.088,356.487 264.565,356.487 264.053 C 356.487 263.540,356.307 263.010,356.088 262.874 C 355.868 262.739,355.689 262.273,355.689 261.840 C 355.689 261.407,355.419 260.949,355.090 260.823 C 354.760 260.697,354.491 260.331,354.491 260.010 C 354.491 259.690,354.042 258.839,353.493 258.119 C 352.944 257.400,352.495 256.685,352.495 256.530 C 352.495 256.376,352.018 255.807,351.434 255.266 C 350.851 254.726,350.473 254.184,350.594 254.063 C 350.854 253.804,355.689 258.612,355.689 259.129 C 355.689 259.323,355.958 259.481,356.287 259.481 C 356.617 259.481,356.886 259.669,356.886 259.898 C 356.886 260.127,357.335 260.799,357.884 261.391 C 358.433 261.983,358.882 262.783,358.882 263.170 C 358.882 263.556,359.021 263.872,359.191 263.872 C 359.360 263.872,359.853 264.546,360.285 265.369 C 360.716 266.193,361.296 267.010,361.573 267.186 C 361.850 267.361,362.076 267.855,362.076 268.283 C 362.076 268.712,362.255 269.062,362.475 269.062 C 362.695 269.062,362.874 269.579,362.874 270.211 C 362.874 270.842,363.144 271.583,363.473 271.856 C 363.802 272.130,364.072 272.876,364.072 273.515 C 364.072 274.178,364.328 274.774,364.671 274.906 C 365.059 275.055,365.269 275.674,365.269 276.666 C 365.269 277.508,365.449 278.307,365.669 278.443 C 365.888 278.579,366.068 280.172,366.068 281.983 C 366.068 284.261,366.249 285.516,366.654 286.051 C 367.446 287.099,367.455 290.885,366.667 291.674 C 366.235 292.105,366.068 293.157,366.068 295.438 C 366.068 297.282,365.901 298.603,365.669 298.603 C 365.449 298.603,365.269 299.299,365.269 300.151 C 365.269 301.040,365.015 301.910,364.671 302.196 C 364.341 302.469,364.072 303.188,364.072 303.792 C 364.072 304.397,363.802 305.116,363.473 305.389 C 363.144 305.663,362.874 306.313,362.874 306.835 C 362.874 307.357,362.695 307.784,362.475 307.784 C 362.255 307.784,362.076 308.239,362.076 308.795 C 362.076 309.351,361.806 309.909,361.477 310.035 C 361.148 310.162,360.878 310.614,360.878 311.040 C 360.878 311.466,360.429 312.231,359.880 312.739 C 359.331 313.248,358.882 313.933,358.882 314.261 C 358.882 314.590,358.433 315.195,357.884 315.608 C 357.335 316.020,356.886 316.584,356.886 316.861 C 356.886 317.138,356.721 317.365,356.520 317.365 C 356.318 317.365,355.741 318.039,355.237 318.862 C 354.133 320.668,353.493 321.357,352.923 321.357 C 352.687 321.357,352.495 321.586,352.495 321.865 C 352.495 322.145,351.866 322.712,351.098 323.126 C 350.329 323.540,349.701 324.030,349.701 324.215 C 349.701 324.400,349.431 324.551,349.102 324.551 C 348.772 324.551,348.503 324.820,348.503 325.150 C 348.503 325.479,348.234 325.749,347.904 325.749 C 347.575 325.749,347.305 325.909,347.305 326.104 C 347.305 326.300,346.856 326.573,346.307 326.711 C 345.758 326.849,345.309 327.138,345.309 327.353 C 345.309 327.568,345.040 327.745,344.711 327.745 C 344.381 327.745,344.112 327.905,344.112 328.100 C 344.112 328.296,343.663 328.569,343.114 328.707 C 342.565 328.845,342.116 329.134,342.116 329.349 C 342.116 329.564,341.667 329.741,341.118 329.741 C 340.497 329.741,340.120 329.967,340.120 330.339 C 340.120 330.736,339.723 330.938,338.946 330.938 C 338.300 330.938,337.661 331.118,337.525 331.337 C 337.389 331.557,336.772 331.737,336.153 331.737 C 335.534 331.737,334.804 332.006,334.531 332.335 C 334.250 332.674,333.380 332.934,332.529 332.934 C 331.559 332.934,330.942 333.147,330.794 333.533 C 330.615 334.000,329.820 334.132,327.182 334.132 C 325.322 334.132,323.689 334.311,323.553 334.531 C 323.417 334.750,322.250 334.930,320.958 334.930 C 319.667 334.930,318.499 334.750,318.363 334.531 C 318.228 334.311,316.505 334.132,314.535 334.132 C 311.719 334.132,310.904 334.004,310.723 333.533 C 310.579 333.156,309.955 332.929,309.039 332.921 C 308.239 332.914,307.236 332.645,306.810 332.323 C 306.384 332.000,305.620 331.737,305.113 331.737 C 304.606 331.737,304.192 331.557,304.192 331.337 C 304.192 331.118,303.582 330.938,302.837 330.938 C 302.001 330.938,301.395 330.709,301.253 330.339 C 301.126 330.010,300.658 329.741,300.212 329.741 C 299.766 329.741,299.401 329.590,299.401 329.406 C 299.401 329.221,298.685 328.727,297.809 328.308 C 296.933 327.888,296.215 327.410,296.212 327.244 C 296.210 327.079,295.489 326.632,294.611 326.252 C 293.733 325.871,293.014 325.333,293.014 325.056 C 293.014 324.778,292.829 324.551,292.604 324.551 C 292.172 324.551,290.209 322.849,288.090 320.637 C 284.140 316.513,283.433 315.689,283.433 315.213 C 283.433 314.924,282.984 314.203,282.435 313.611 C 281.886 313.018,281.437 312.268,281.437 311.943 C 281.437 311.618,281.168 311.249,280.838 311.122 C 280.509 310.996,280.240 310.703,280.240 310.471 C 280.240 309.758,278.908 306.986,278.566 306.986 C 278.389 306.986,278.244 306.573,278.244 306.068 C 278.244 305.563,278.019 304.898,277.745 304.590 C 277.320 304.114,277.350 304.109,277.944 304.559 C 278.328 304.850,278.643 305.309,278.643 305.579 C 278.643 305.850,279.092 306.556,279.641 307.148 C 280.190 307.740,280.642 308.440,280.645 308.703 C 280.649 308.966,281.455 310.038,282.437 311.084 C 283.418 312.130,284.514 313.433,284.871 313.978 C 285.229 314.524,285.689 314.970,285.893 314.970 C 286.098 314.970,286.682 315.419,287.191 315.968 C 287.699 316.517,288.319 316.966,288.569 316.966 C 288.818 316.966,289.022 317.207,289.022 317.502 C 289.022 317.797,289.651 318.377,290.419 318.790 C 291.188 319.204,291.816 319.682,291.816 319.851 C 291.816 320.021,292.086 320.160,292.415 320.160 C 292.745 320.160,293.014 320.310,293.014 320.494 C 293.014 320.678,294.002 321.246,295.210 321.756 C 296.417 322.267,297.405 322.835,297.405 323.019 C 297.405 323.203,297.854 323.353,298.403 323.353 C 298.952 323.353,299.401 323.531,299.401 323.748 C 299.401 323.965,300.120 324.257,300.998 324.398 C 301.876 324.538,302.595 324.810,302.595 325.001 C 302.595 325.193,303.277 325.349,304.112 325.349 C 304.946 325.349,305.853 325.574,306.126 325.848 C 306.402 326.125,308.262 326.474,310.298 326.631 C 312.319 326.787,314.842 327.031,315.905 327.173 C 317.124 327.336,318.001 327.268,318.280 326.989 C 318.532 326.738,320.131 326.547,321.987 326.547 C 324.402 326.547,325.381 326.391,325.749 325.948 C 326.031 325.607,326.902 325.349,327.770 325.349 C 328.608 325.349,329.393 325.190,329.513 324.995 C 329.633 324.801,330.362 324.523,331.133 324.378 C 331.904 324.234,332.535 323.944,332.535 323.734 C 332.535 323.525,332.984 323.353,333.533 323.353 C 334.082 323.353,334.533 323.219,334.535 323.054 C 334.537 322.889,335.525 322.316,336.731 321.780 C 337.936 321.244,338.922 320.660,338.922 320.483 C 338.922 320.305,339.165 320.160,339.463 320.160 C 339.760 320.160,340.488 319.711,341.080 319.162 C 341.672 318.613,342.231 318.164,342.322 318.164 C 342.413 318.164,343.021 317.670,343.674 317.066 C 344.326 316.462,345.590 315.366,346.482 314.629 C 347.374 313.893,348.104 313.084,348.104 312.833 C 348.105 312.581,348.778 311.728,349.601 310.937 C 351.234 309.368,351.992 308.363,352.354 307.285 C 352.483 306.901,352.747 306.587,352.941 306.587 C 353.135 306.587,353.293 306.250,353.293 305.837 C 353.293 305.425,353.563 304.864,353.892 304.591 C 354.222 304.317,354.491 303.834,354.491 303.515 C 354.491 303.197,354.760 302.668,355.090 302.338 C 355.419 302.009,355.689 301.393,355.689 300.969 C 355.689 300.546,355.868 300.200,356.088 300.200 C 356.307 300.200,356.487 299.683,356.487 299.051 C 356.487 298.419,356.756 297.679,357.086 297.405 C 357.427 297.122,357.685 296.252,357.685 295.384 C 357.685 294.545,357.864 293.748,358.084 293.613 C 358.594 293.298,358.611 288.224,358.102 288.224 C 357.892 288.224,357.609 288.897,357.472 289.721 C 357.335 290.544,356.981 291.756,356.684 292.415 C 356.388 293.074,355.787 294.434,355.349 295.438 C 351.876 303.405,342.182 311.768,334.087 313.780 C 307.237 320.455,287.602 303.006,291.179 275.649 C 293.635 256.860,314.276 243.711,333.333 248.795 M358.729 284.455 C 358.413 285.277,358.742 285.729,359.271 285.200 C 359.478 284.993,359.500 284.586,359.320 284.295 C 359.063 283.879,358.937 283.913,358.729 284.455 M1.863 333.599 C 1.332 334.131,1.593 337.035,2.213 337.488 C 2.575 337.753,2.857 338.630,2.896 339.615 C 2.936 340.608,3.093 341.093,3.281 340.805 C 3.576 340.355,3.439 337.729,2.959 334.631 C 2.765 333.375,2.416 333.047,1.863 333.599 M2.794 342.672 C 2.794 343.197,3.083 343.738,3.435 343.873 C 3.812 344.018,3.978 344.372,3.838 344.735 C 3.703 345.087,3.771 345.247,3.997 345.107 C 4.437 344.835,4.521 343.317,4.149 342.348 C 3.770 341.362,2.794 341.595,2.794 342.672 M3.593 346.906 C 3.593 347.350,3.859 347.705,4.192 347.705 C 4.524 347.705,4.790 348.059,4.790 348.503 C 4.790 348.942,4.970 349.301,5.190 349.301 C 5.696 349.301,5.699 348.447,5.200 347.132 C 4.738 345.918,3.593 345.757,3.593 346.906 M395.984 346.951 C 395.736 347.415,395.615 348.223,395.715 348.747 C 395.815 349.272,395.738 349.701,395.544 349.701 C 394.940 349.701,394.329 351.774,394.796 352.241 C 395.081 352.527,395.210 352.445,395.210 351.976 C 395.210 351.603,395.486 351.297,395.825 351.297 C 396.296 351.297,396.417 350.908,396.341 349.628 C 396.280 348.602,396.428 347.897,396.724 347.799 C 397.294 347.609,397.379 346.108,396.820 346.108 C 396.609 346.108,396.232 346.487,395.984 346.951 M4.790 350.470 C 4.790 350.950,5.049 351.297,5.407 351.297 C 5.891 351.297,5.970 351.587,5.772 352.639 C 5.556 353.795,5.643 354.013,6.403 354.212 C 7.120 354.399,7.236 354.633,7.028 355.465 C 6.837 356.226,6.926 356.487,7.378 356.487 C 7.785 356.487,7.984 356.880,7.984 357.685 C 7.984 358.490,8.183 358.882,8.590 358.882 C 9.038 358.882,9.131 359.144,8.946 359.880 C 8.757 360.635,8.852 360.878,9.338 360.878 C 9.757 360.878,9.980 361.225,9.980 361.876 C 9.980 362.529,10.203 362.874,10.625 362.874 C 11.065 362.874,11.207 363.118,11.071 363.638 C 10.932 364.168,11.118 364.467,11.678 364.613 C 12.326 364.783,12.439 365.049,12.256 365.967 C 12.058 366.957,12.184 367.169,13.199 367.552 C 13.844 367.795,14.371 368.280,14.371 368.628 C 14.371 368.976,14.551 369.261,14.770 369.261 C 14.990 369.261,15.170 369.704,15.170 370.245 C 15.170 370.861,15.506 371.404,16.068 371.697 C 17.181 372.276,18.363 373.481,18.363 374.035 C 18.363 374.264,18.654 374.451,19.009 374.451 C 19.454 374.451,19.590 374.695,19.449 375.236 C 19.234 376.059,20.324 377.645,21.105 377.645 C 21.353 377.645,21.557 377.848,21.557 378.097 C 21.557 378.872,24.331 381.220,24.961 380.979 C 25.673 380.705,25.756 381.475,25.050 381.799 C 24.775 381.925,24.946 381.931,25.429 381.812 C 26.306 381.596,27.944 382.782,27.944 383.633 C 27.944 383.852,28.124 384.032,28.343 384.032 C 28.563 384.032,28.743 384.301,28.743 384.631 C 28.743 385.007,29.122 385.230,29.767 385.230 C 31.105 385.230,32.335 385.905,32.335 386.641 C 32.335 386.971,32.705 387.226,33.183 387.226 C 33.840 387.226,33.932 387.344,33.591 387.754 C 33.241 388.177,33.390 388.247,34.341 388.108 C 35.240 387.976,35.529 388.090,35.529 388.577 C 35.529 388.998,35.875 389.222,36.527 389.222 C 37.180 389.222,37.525 389.445,37.525 389.867 C 37.525 390.322,37.767 390.449,38.348 390.297 C 38.851 390.165,39.255 390.302,39.388 390.650 C 39.508 390.962,40.036 391.218,40.562 391.218 C 41.145 391.218,41.517 391.451,41.517 391.816 C 41.517 392.220,41.921 392.415,42.757 392.415 C 43.668 392.415,43.939 392.567,43.779 392.985 C 43.606 393.435,43.850 393.508,44.934 393.332 C 46.029 393.154,46.307 393.241,46.307 393.760 C 46.307 394.238,46.679 394.411,47.705 394.411 C 48.680 394.411,49.102 394.592,49.102 395.010 C 49.102 395.339,49.371 395.609,49.701 395.609 C 50.033 395.609,50.299 395.254,50.299 394.810 C 50.299 394.055,49.802 393.833,48.304 393.921 C 47.975 393.941,47.561 393.699,47.386 393.385 C 47.210 393.071,46.671 392.809,46.188 392.802 C 45.705 392.795,44.961 392.525,44.534 392.203 C 44.108 391.881,43.435 391.617,43.037 391.617 C 42.640 391.617,42.315 391.437,42.315 391.218 C 42.315 390.998,41.885 390.818,41.360 390.818 C 40.835 390.818,40.301 390.549,40.175 390.220 C 40.049 389.890,39.580 389.621,39.134 389.621 C 38.688 389.621,38.322 389.486,38.321 389.321 C 38.317 388.920,36.009 387.625,35.297 387.625 C 34.985 387.625,34.731 387.455,34.731 387.248 C 34.731 387.041,33.743 386.280,32.535 385.558 C 31.327 384.836,30.339 384.107,30.339 383.939 C 30.339 383.770,30.144 383.633,29.904 383.633 C 29.071 383.633,17.964 372.891,17.964 372.086 C 17.964 371.836,17.695 371.528,17.365 371.402 C 17.036 371.275,16.766 371.004,16.766 370.798 C 16.766 370.592,16.317 369.940,15.768 369.348 C 15.220 368.756,14.770 368.071,14.770 367.827 C 14.770 367.582,14.321 366.897,13.772 366.305 C 13.224 365.713,12.774 364.979,12.774 364.674 C 12.774 364.369,12.605 364.014,12.399 363.887 C 12.192 363.759,11.621 362.850,11.130 361.867 C 10.639 360.884,10.090 360.080,9.909 360.080 C 9.729 360.080,9.581 359.747,9.581 359.341 C 9.581 358.934,9.162 357.812,8.649 356.846 C 8.137 355.880,7.595 354.596,7.444 353.992 C 7.294 353.388,6.949 352.894,6.679 352.894 C 6.378 352.895,6.188 352.319,6.188 351.407 C 6.188 350.308,6.005 349.883,5.489 349.780 C 5.004 349.684,4.790 349.895,4.790 350.470 M393.879 353.160 C 393.733 353.307,393.613 353.708,393.613 354.053 C 393.613 354.397,393.180 355.580,392.650 356.681 C 392.121 357.782,391.580 358.952,391.449 359.281 C 391.318 359.611,390.830 360.509,390.366 361.277 C 389.901 362.046,389.221 363.214,388.855 363.872 C 387.634 366.068,385.100 369.859,384.764 369.993 C 384.581 370.067,384.431 370.273,384.431 370.451 C 384.431 371.527,372.325 383.633,371.250 383.633 C 371.071 383.633,370.865 383.782,370.792 383.965 C 370.657 384.302,366.867 386.835,364.671 388.056 C 364.012 388.422,362.844 389.102,362.076 389.567 C 361.307 390.032,360.409 390.523,360.080 390.659 C 359.750 390.794,358.673 391.287,357.685 391.753 C 356.697 392.220,355.441 392.696,354.895 392.811 C 353.787 393.044,353.247 394.411,354.262 394.411 C 354.608 394.411,354.890 394.122,354.890 393.768 C 354.890 393.250,355.160 393.175,356.281 393.386 C 357.433 393.602,357.632 393.541,357.436 393.031 C 357.255 392.557,357.487 392.415,358.440 392.415 C 359.277 392.415,359.681 392.220,359.681 391.816 C 359.681 391.444,360.058 391.218,360.679 391.218 C 361.228 391.218,361.677 391.038,361.677 390.818 C 361.677 390.599,362.126 390.419,362.675 390.419 C 363.296 390.419,363.673 390.193,363.673 389.820 C 363.673 389.491,364.013 389.222,364.428 389.222 C 364.844 389.222,365.292 388.939,365.425 388.594 C 365.559 388.244,366.063 387.999,366.565 388.039 C 368.000 388.156,368.307 388.040,367.665 387.625 C 367.180 387.312,367.238 387.237,367.964 387.232 C 368.458 387.228,368.862 386.996,368.862 386.715 C 368.862 385.879,370.332 384.872,371.216 385.103 C 371.836 385.265,372.155 385.041,372.537 384.175 C 372.815 383.548,373.350 382.805,373.727 382.526 C 374.104 382.247,374.677 381.753,375.002 381.428 C 375.326 381.104,375.977 380.838,376.447 380.838 C 377.355 380.838,378.443 379.983,378.443 379.270 C 378.443 379.035,378.713 378.842,379.042 378.842 C 379.371 378.842,379.641 378.573,379.641 378.244 C 379.641 377.914,379.833 377.645,380.068 377.645 C 380.782 377.645,381.637 376.557,381.637 375.649 C 381.637 375.178,381.902 374.528,382.227 374.203 C 382.551 373.879,383.045 373.305,383.324 372.928 C 383.604 372.552,384.326 372.025,384.930 371.759 C 385.594 371.466,386.028 370.963,386.028 370.486 C 386.028 369.218,386.917 367.614,387.496 367.836 C 387.829 367.964,388.024 367.733,388.024 367.210 C 388.024 366.681,388.217 366.456,388.560 366.588 C 388.944 366.735,389.045 366.521,388.914 365.837 C 388.793 365.202,388.948 364.797,389.376 364.633 C 389.730 364.497,390.020 364.046,390.020 363.630 C 390.020 363.200,390.298 362.874,390.665 362.874 C 391.138 362.874,391.260 362.608,391.120 361.876 C 390.992 361.207,391.108 360.878,391.473 360.878 C 391.786 360.878,392.016 360.456,392.016 359.880 C 392.016 359.259,392.242 358.882,392.615 358.882 C 393.014 358.882,393.214 358.483,393.214 357.685 C 393.214 356.895,393.414 356.487,393.802 356.487 C 394.244 356.487,394.331 356.187,394.152 355.289 C 393.964 354.352,394.053 354.092,394.561 354.092 C 394.918 354.092,395.210 353.822,395.210 353.493 C 395.210 352.885,394.365 352.674,393.879 353.160 M351.597 393.888 C 350.746 394.110,350.659 395.609,351.497 395.609 C 351.826 395.609,352.096 395.339,352.096 395.010 C 352.096 394.681,352.376 394.411,352.718 394.411 C 353.060 394.411,353.230 394.232,353.094 394.012 C 352.837 393.596,352.744 393.588,351.597 393.888 M50.856 395.277 C 50.661 395.594,50.787 395.660,51.247 395.484 C 51.668 395.322,52.013 395.448,52.154 395.815 C 52.441 396.565,53.892 396.595,53.892 395.851 C 53.892 394.858,51.406 394.389,50.856 395.277 M347.605 395.242 C 347.221 395.465,346.906 395.819,346.906 396.028 C 346.906 396.609,348.089 396.479,348.743 395.825 C 349.063 395.505,349.618 395.356,349.977 395.494 C 350.414 395.662,350.534 395.590,350.341 395.277 C 349.989 394.708,348.554 394.689,347.605 395.242 M55.788 396.290 C 56.282 396.385,56.687 396.720,56.687 397.034 C 56.687 397.377,57.085 397.605,57.685 397.605 C 58.272 397.605,58.683 397.376,58.683 397.049 C 58.683 396.346,57.777 395.993,56.155 396.062 C 55.216 396.103,55.121 396.161,55.788 396.290 M342.750 396.307 C 341.856 397.207,333.500 397.693,314.172 397.967 L 293.613 398.259 315.170 398.192 C 336.988 398.125,340.179 397.938,345.110 396.440 C 346.289 396.082,346.282 396.076,344.677 396.042 C 343.781 396.023,342.913 396.143,342.750 396.307 M59.269 397.226 C 59.069 397.549,59.120 397.628,59.413 397.448 C 60.134 397.002,62.675 397.628,62.675 398.251 C 62.675 398.707,62.819 398.719,63.465 398.316 C 64.070 397.938,64.536 397.929,65.461 398.278 C 66.419 398.640,66.667 398.626,66.667 398.212 C 66.667 397.265,59.809 396.351,59.269 397.226 M85.130 398.279 C 85.514 398.380,86.143 398.380,86.527 398.279 C 86.911 398.179,86.597 398.097,85.828 398.097 C 85.060 398.097,84.746 398.179,85.130 398.279 M105.389 398.160 C 105.389 398.246,106.005 398.388,106.758 398.476 C 107.511 398.564,108.040 398.493,107.932 398.320 C 107.739 398.007,105.389 397.859,105.389 398.160 M126.000 398.320 C 125.892 398.493,126.421 398.564,127.174 398.476 C 127.927 398.388,128.543 398.246,128.543 398.160 C 128.543 397.859,126.193 398.007,126.000 398.320 M147.609 398.286 C 148.106 398.382,148.825 398.378,149.206 398.278 C 149.588 398.178,149.182 398.100,148.303 398.105 C 147.425 398.109,147.113 398.191,147.609 398.286 M168.064 398.160 C 168.064 398.246,168.680 398.388,169.433 398.476 C 170.186 398.564,170.714 398.493,170.607 398.320 C 170.414 398.007,168.064 397.859,168.064 398.160 M188.674 398.320 C 188.567 398.493,189.095 398.564,189.848 398.476 C 190.601 398.388,191.218 398.246,191.218 398.160 C 191.218 397.859,188.867 398.007,188.674 398.320 M210.284 398.286 C 210.781 398.382,211.499 398.378,211.881 398.278 C 212.263 398.178,211.856 398.100,210.978 398.105 C 210.100 398.109,209.788 398.191,210.284 398.286 M230.739 398.160 C 230.739 398.246,231.355 398.388,232.108 398.476 C 232.861 398.564,233.389 398.493,233.282 398.320 C 233.089 398.007,230.739 397.859,230.739 398.160 M251.349 398.320 C 251.242 398.493,251.770 398.564,252.523 398.476 C 253.276 398.388,253.892 398.246,253.892 398.160 C 253.892 397.859,251.542 398.007,251.349 398.320 M272.959 398.286 C 273.455 398.382,274.174 398.378,274.556 398.278 C 274.937 398.178,274.531 398.100,273.653 398.105 C 272.774 398.109,272.462 398.191,272.959 398.286 " stroke="none" fill="#e36d3e" fill-rule="evenodd"></path></g></svg>